<svg id="Component_1_1" data-name="Component 1 – 1" xmlns="http://www.w3.org/2000/svg" width="56.5" height="36.882" viewBox="0 0 56.5 36.882">
  <g id="Group_320" data-name="Group 320" transform="translate(-1810.799 -1773.648)">
    <g id="Group_318" data-name="Group 318" transform="translate(1820.799 1780.488)">
      <path id="Path_170" data-name="Path 170" d="M1835.248,1807.385h-11.135c-1.045,0-1.164-.114-1.164-1.138q0-5.88,0-11.76a3.1,3.1,0,0,0-.244-1.269,4.342,4.342,0,0,1,0-3.6c1-2.228,1.8-4.535,2.677-6.813a1.088,1.088,0,0,1,1.194-.815q8.7.034,17.4,0a1.093,1.093,0,0,1,1.2.81c.9,2.35,1.744,4.723,2.761,7.03a4.136,4.136,0,0,1-.077,3.383,3.106,3.106,0,0,0-.249,1.269q.013,5.88,0,11.76c0,1.027-.122,1.145-1.157,1.146Zm-11.063-12.1c0,3.51.007,6.937-.009,10.363,0,.427.15.517.536.506.85-.024,1.7-.033,2.552,0,.455.019.559-.146.552-.571-.023-1.444-.009-2.889-.008-4.333a4.556,4.556,0,0,1,.259-1.747,3.553,3.553,0,0,1,6.854,1.417c.04,1.547.03,3.1,0,4.643-.01.481.124.6.6.594q5.1-.032,10.209,0c.561,0,.671-.17.667-.695-.024-3.2-.01-6.4-.018-9.6,0-.182.115-.413-.151-.57a4.752,4.752,0,0,1-6.826-1.5,4.788,4.788,0,0,1-8.215.036C1829.221,1796.332,1827.371,1796.735,1824.185,1795.284Zm14.553-7.657h.053c0-1.288-.014-2.576.008-3.863.007-.392-.09-.537-.51-.533-2.008.021-4.016.018-6.024,0-.371,0-.486.108-.481.48.031,2.652-.012,5.307.08,7.957a3.338,3.338,0,0,0,3.358,3.245,3.389,3.389,0,0,0,3.5-3.12C1838.821,1790.414,1838.738,1789.018,1838.738,1787.628Zm-8.182.021h.006c0-1.313-.013-2.627.008-3.939.006-.372-.1-.486-.475-.477-1.029.026-2.059.03-3.088,0-.392-.012-.523.167-.645.487-.874,2.3-1.763,4.6-2.648,6.9a2.3,2.3,0,0,0-.1,1.36,3.48,3.48,0,0,0,3.69,2.921,3.406,3.406,0,0,0,3.241-3.387C1830.607,1790.226,1830.555,1788.936,1830.555,1787.648Zm9.467.081h.052c0,1.416-.095,2.84.027,4.246a3.105,3.105,0,0,0,2.359,2.764,3.236,3.236,0,0,0,3.53-.91,3.092,3.092,0,0,0,.756-3.473q-1.269-3.266-2.506-6.545c-.135-.356-.252-.611-.738-.585-.976.051-1.957.037-2.935.005-.439-.014-.565.115-.555.556C1840.042,1785.1,1840.023,1786.416,1840.023,1787.73Zm-10.979,15.45c0,.824.012,1.648-.006,2.472-.007.335.039.511.447.5,1.261-.026,2.522-.017,3.784,0,.313,0,.469-.066.462-.422-.032-1.673.015-3.35-.082-5.019a2.263,2.263,0,0,0-2.409-2.2,2.318,2.318,0,0,0-2.189,2.349C1829.022,1801.633,1829.046,1802.407,1829.044,1803.18Z" transform="translate(-1822.082 -1781.756)" fill="#070707"/>
      <path id="Path_171" data-name="Path 171" d="M1827.9,1806.35h-5.075c-1.174,0-1.4-.218-1.4-1.37v-.811c0-3.589,0-7.3,0-10.949a2.883,2.883,0,0,0-.225-1.177,4.543,4.543,0,0,1,0-3.788c.734-1.631,1.371-3.336,1.987-4.985.226-.606.453-1.212.684-1.816a1.317,1.317,0,0,1,1.4-.964h.011c5.8.023,11.653.023,17.4,0h.012a1.319,1.319,0,0,1,1.406.959c.234.609.464,1.219.693,1.83.645,1.714,1.312,3.486,2.063,5.189a4.33,4.33,0,0,1-.076,3.568,2.876,2.876,0,0,0-.23,1.177c.008,3.649.006,7.359,0,10.947v.813c0,1.159-.221,1.378-1.389,1.378H1827.9Zm-2.62-25.4a.859.859,0,0,0-.965.667c-.231.6-.457,1.207-.683,1.812-.619,1.656-1.258,3.368-2,5.013a4.1,4.1,0,0,0,0,3.415,3.331,3.331,0,0,1,.263,1.361c-.007,3.649-.006,7.36,0,10.948v.811c0,.9.009.905.932.905h22.347c.907,0,.924-.018.925-.914v-.813c0-3.588,0-7.3,0-10.946a3.329,3.329,0,0,1,.268-1.361,3.883,3.883,0,0,0,.078-3.2c-.757-1.715-1.426-3.493-2.073-5.213q-.344-.914-.692-1.827a.868.868,0,0,0-.971-.661h-.011c-5.745.023-11.6.023-17.4,0Zm19.184,24.173h-.027c-3.1-.025-6.443-.026-10.206,0a.692.692,0,0,1-.832-.831c.037-1.792.038-3.264,0-4.632a3.321,3.321,0,0,0-6.406-1.335,4.389,4.389,0,0,0-.242,1.66q0,.57,0,1.14c0,1.046-.006,2.127.011,3.189a.836.836,0,0,1-.187.636.8.8,0,0,1-.607.171c-.732-.03-1.514-.031-2.536,0a.786.786,0,0,1-.594-.166.77.77,0,0,1-.181-.574c.013-2.619.012-5.182.01-7.9v-2.828l.329.15c3.064,1.4,4.822,1.033,6.719-1.385l.2-.257.177.274a4.594,4.594,0,0,0,3.916,2.2,4.644,4.644,0,0,0,3.907-2.236l.2-.315.2.313a4.519,4.519,0,0,0,2.935,2.145,4.465,4.465,0,0,0,3.563-.708l.122-.083.127.075a.593.593,0,0,1,.275.671.761.761,0,0,0-.01.1q0,1.775,0,3.55c0,1.981,0,4.03.015,6.044a.954.954,0,0,1-.2.725A.918.918,0,0,1,1844.468,1805.125Zm-5.045-.484c1.754,0,3.419.006,5.021.02.245,0,.335-.036.367-.068.069-.069.067-.313.066-.393-.015-2.016-.015-4.066-.015-6.048q0-1.775,0-3.549a1.2,1.2,0,0,1,.014-.162c.005-.039.009-.069.01-.093a4.966,4.966,0,0,1-6.768-1.4,5.087,5.087,0,0,1-4.1,2.16,5,5,0,0,1-4.131-2.153c-1.9,2.292-3.781,2.688-6.75,1.42v2.11c0,2.714,0,5.278-.01,7.9,0,.189.034.232.041.239s.061.04.256.034c1.033-.029,1.825-.028,2.568,0,.2.008.252-.028.263-.039s.05-.082.047-.3c-.017-1.067-.014-2.15-.011-3.2q0-.569,0-1.139a4.791,4.791,0,0,1,.276-1.835,3.785,3.785,0,0,1,7.3,1.5c.036,1.376.035,2.854,0,4.654,0,.221.027.286.046.306s.088.051.318.051C1836.054,1804.647,1837.778,1804.641,1839.423,1804.641Zm-11.251.479a.674.674,0,0,1-.49-.163.755.755,0,0,1-.16-.577c.013-.585.01-1.181.008-1.758q0-.354,0-.709h0c0-.253,0-.506,0-.758,0-.513-.009-1.044.011-1.568a2.551,2.551,0,0,1,2.412-2.573,2.508,2.508,0,0,1,2.651,2.416c.063,1.086.066,2.191.068,3.259,0,.58,0,1.18.014,1.769a.65.65,0,0,1-.157.494.717.717,0,0,1-.539.164c-1.274-.012-2.521-.021-3.777,0Zm-.179-3.207q0,.353,0,.707c0,.58,0,1.179-.008,1.77,0,.2.017.232.024.239s.033.029.186.026c1.262-.026,2.513-.017,3.791,0,.176,0,.2-.025.2-.027s.025-.029.023-.158c-.011-.593-.013-1.195-.014-1.777,0-1.062-.005-2.16-.068-3.234a2.03,2.03,0,0,0-2.167-1.978A2.1,2.1,0,0,0,1828,1799.6c-.019.513-.015,1.039-.01,1.547,0,.254,0,.509,0,.763Zm14.321-8.023a4,4,0,0,1-1.207-.2,3.329,3.329,0,0,1-2.52-2.965,28.082,28.082,0,0,1-.045-2.975c.007-.348.014-.706.017-1.06h-.051v-.231q0-.555,0-1.109c0-.927.008-1.886-.014-2.828a.66.66,0,0,1,.794-.793c.86.028,1.878.05,2.915-.005a.9.9,0,0,1,.968.735c.729,1.923,1.6,4.2,2.505,6.543a3.319,3.319,0,0,1-.8,3.717A3.459,3.459,0,0,1,1842.314,1793.89Zm-3.342-7.659h.052v.231c0,.434-.009.875-.018,1.3a27.686,27.686,0,0,0,.043,2.925,2.882,2.882,0,0,0,2.2,2.562,2.993,2.993,0,0,0,3.291-.848,2.853,2.853,0,0,0,.708-3.229c-.91-2.341-1.778-4.623-2.507-6.547-.13-.345-.187-.453-.509-.436-1.054.056-2.085.034-2.954.005-.2-.006-.259.025-.273.039s-.047.069-.042.28c.021.947.017,1.909.014,2.84Q1838.973,1785.793,1838.972,1786.231Zm-5,7.649h-.039a3.56,3.56,0,0,1-3.588-3.469c-.059-1.712-.062-3.453-.065-5.136,0-.927,0-1.885-.015-2.826a.611.611,0,0,1,.716-.715c2.215.018,4.184.017,6.02,0a.772.772,0,0,1,.573.176.789.789,0,0,1,.172.593c-.016.928-.013,1.872-.01,2.786q0,.536,0,1.073v.232h-.052c0,.351.009.705.015,1.049.017.952.035,1.937-.037,2.9A3.622,3.622,0,0,1,1833.975,1793.88Zm-3.007-11.682c-.167,0-.2.029-.2.032s-.033.038-.031.213c.011.944.013,1.9.014,2.831,0,1.679.006,3.417.065,5.121a3.1,3.1,0,0,0,3.128,3.021h.034a3.162,3.162,0,0,0,3.228-2.9c.071-.946.053-1.919.036-2.861-.008-.422-.016-.859-.016-1.29v-.232h.053q0-.42,0-.84c0-.916-.005-1.863.01-2.8,0-.2-.025-.245-.037-.257s-.051-.041-.238-.039c-1.838.019-3.81.02-6.028,0Zm-5.219,11.673a3.727,3.727,0,0,1-3.647-3.113,2.526,2.526,0,0,1,.113-1.494l.52-1.35c.7-1.817,1.425-3.7,2.127-5.547a.815.815,0,0,1,.869-.637c.947.029,1.953.03,3.075,0a.6.6,0,0,1,.713.713c-.016.95-.013,1.917-.01,2.852q0,.542,0,1.083l-.006.225c0,.322.005.645.009.967.011.878.022,1.787-.022,2.681a3.642,3.642,0,0,1-3.456,3.607C1825.94,1793.867,1825.844,1793.871,1825.749,1793.871Zm-.069-11.677c-.21,0-.279.066-.383.338-.7,1.853-1.428,3.732-2.128,5.55l-.52,1.35a2.071,2.071,0,0,0-.093,1.227A3.231,3.231,0,0,0,1826,1793.4a3.157,3.157,0,0,0,3.025-3.167c.044-.88.033-1.781.022-2.653,0-.4-.01-.8-.01-1.2l.006-.232q0-.425,0-.85c0-.937-.005-1.906.01-2.861,0-.183-.027-.215-.028-.215s-.032-.03-.209-.026c-1.13.028-2.144.027-3.1,0Zm3.592,4.187h0Z" transform="translate(-1820.799 -1780.488)" fill="#070707"/>
    </g>
    <g id="Group_319" data-name="Group 319" transform="translate(1835.717 1795.844)">
      <path id="Path_172" data-name="Path 172" d="M1922.53,1881.145c.773,0,1.546-.008,2.318,0,1.08.013,1.567.492,1.577,1.549.007.85.013,1.7,0,2.551a1.312,1.312,0,0,1-1.388,1.42q-2.511.038-5.023,0a1.266,1.266,0,0,1-1.367-1.348c-.024-.927-.023-1.856,0-2.783a1.289,1.289,0,0,1,1.413-1.385C1920.881,1881.128,1921.706,1881.145,1922.53,1881.145Zm.193,4.27c.668-.08,1.794.368,2.32-.166.418-.425.108-1.557.143-2.374.015-.352-.074-.505-.465-.5-1.465.027-2.93.03-4.4.024-.338,0-.45.125-.442.452.016.694.02,1.389,0,2.083-.011.367.112.5.486.486C1921.088,1885.4,1921.808,1885.415,1922.724,1885.415Z" transform="translate(-1918.395 -1880.906)" fill="#070707"/>
      <path id="Path_173" data-name="Path 173" d="M1921.282,1885.649c-.844,0-1.693-.006-2.54-.019a1.5,1.5,0,0,1-1.6-1.574c-.023-.892-.024-1.833,0-2.795a1.515,1.515,0,0,1,1.639-1.611c.573-.016,1.153-.012,1.715-.008l.764,0h.694c.533,0,1.084,0,1.627,0a1.6,1.6,0,0,1,1.806,1.779c.008.907.013,1.726,0,2.557a1.548,1.548,0,0,1-1.617,1.648C1922.949,1885.643,1922.118,1885.649,1921.282,1885.649Zm-1.526-5.546c-.32,0-.641,0-.959.011a1.064,1.064,0,0,0-1.187,1.158c-.023.954-.023,1.887,0,2.771a1.037,1.037,0,0,0,1.139,1.122c1.68.025,3.368.025,5.016,0a1.083,1.083,0,0,0,1.16-1.192c.015-.825.01-1.641,0-2.545-.008-.925-.4-1.307-1.347-1.318-.539-.006-1.089,0-1.62,0l-.7,0h0c-.256,0-.511,0-.767,0S1920,1880.1,1919.756,1880.1Zm3.2,4.376a6.078,6.078,0,0,1-.725-.059,3.469,3.469,0,0,0-.748-.043l-.028,0c-.282,0-.546,0-.8,0-.567,0-1.057-.007-1.55.01a.615.615,0,0,1-.726-.726c.019-.615.02-1.272,0-2.07a.7.7,0,0,1,.16-.519.685.685,0,0,1,.515-.17c1.714.007,3.109,0,4.39-.024a.721.721,0,0,1,.544.172.744.744,0,0,1,.157.568,6.955,6.955,0,0,0,.037.827c.057.687.111,1.337-.247,1.7A1.316,1.316,0,0,1,1922.958,1884.48Zm-1.317-.575a5.493,5.493,0,0,1,.648.055c.52.063,1.057.129,1.322-.141.208-.212.159-.809.115-1.336a7.237,7.237,0,0,1-.038-.886c.008-.18-.02-.218-.026-.224s-.036-.034-.2-.032c-1.285.024-2.683.031-4.4.024-.143,0-.18.03-.182.031s-.031.035-.027.183c.018.807.018,1.473,0,2.1-.005.17.026.209.032.216s.046.037.214.031c.5-.017,1-.014,1.569-.01.246,0,.5,0,.78,0A1.785,1.785,0,0,1,1921.64,1883.905Z" transform="translate(-1917.128 -1879.639)" fill="#070707"/>
    </g>
  </g>
  <path id="Path_174" data-name="Path 174" d="M1698.839,2138.694a.9.9,0,0,1-.879-.674,4.276,4.276,0,0,0-2.94-3.068.909.909,0,0,1-.655-.948.927.927,0,0,1,.7-.919,7.815,7.815,0,0,0,1.236-.481,3.189,3.189,0,0,0,1.665-1.973.991.991,0,0,1,1.95-.059,3.88,3.88,0,0,0,2.609,2.5,1,1,0,0,1,.085,1.951,4.722,4.722,0,0,0-2.752,2.9A1,1,0,0,1,1698.839,2138.694Zm.136-6.673a5.133,5.133,0,0,1-2.3,2.053,5.668,5.668,0,0,1,2.248,2.376,6.591,6.591,0,0,1,2.213-2.353A5.369,5.369,0,0,1,1698.974,2132.021Z" transform="translate(-1652.365 -2101.812)"/>
  <path id="Path_176" data-name="Path 176" d="M1698.839,2138.694a.9.9,0,0,1-.879-.674,4.276,4.276,0,0,0-2.94-3.068.909.909,0,0,1-.655-.948.927.927,0,0,1,.7-.919,7.815,7.815,0,0,0,1.236-.481,3.189,3.189,0,0,0,1.665-1.973.991.991,0,0,1,1.95-.059,3.88,3.88,0,0,0,2.609,2.5,1,1,0,0,1,.085,1.951,4.722,4.722,0,0,0-2.752,2.9A1,1,0,0,1,1698.839,2138.694Zm.136-6.673a5.133,5.133,0,0,1-2.3,2.053,5.668,5.668,0,0,1,2.248,2.376,6.591,6.591,0,0,1,2.213-2.353A5.369,5.369,0,0,1,1698.974,2132.021Z" transform="translate(-1694.365 -2127.812)"/>
  <g id="Group_327" data-name="Group 327" transform="translate(-123 -174.286)">
    <path id="Path_179" data-name="Path 179" d="M1941.255,2136.45c.019-.32.022-.643.061-.96.031-.252-.053-.321-.3-.3-.594.052-1.189.076-1.783.124a.78.78,0,0,1-.885-.411.772.772,0,0,1,.254-.941c1.083-1.077,2.157-2.165,3.247-3.236.215-.211.279-.344.087-.637a6.9,6.9,0,0,1,.06-7.807,6.809,6.809,0,0,1,7.191-2.952,6.93,6.93,0,0,1,5.519,5.474,6.806,6.806,0,0,1-.993,5.259.435.435,0,0,0,.079.672c1.071,1.046,2.12,2.115,3.186,3.167.281.277.484.572.314.971-.18.424-.55.475-.96.439-.532-.047-1.07-.051-1.6-.121-.4-.053-.457.11-.421.451.059.546.076,1.1.122,1.645a.774.774,0,0,1-.429.877.788.788,0,0,1-.939-.269q-2.133-2.146-4.277-4.281a1.463,1.463,0,0,0-1.971.018q-2.106,2.108-4.212,4.216c-.289.291-.589.506-1.009.31a.806.806,0,0,1-.408-.933c.026-.258.038-.518.056-.777Zm6.59-4.628a5.57,5.57,0,1,0-5.6-5.536A5.563,5.563,0,0,0,1947.846,2131.822Zm5,3.626c-.018-.245-.036-.512-.057-.779-.057-.746.25-1.057.985-1,.277.021.555.035.91.056-.725-.734-1.378-1.394-2.029-2.057-.093-.094-.171-.166-.3-.049a7.358,7.358,0,0,1-2.1,1.244Zm-10.044.137c.892-.892,1.707-1.709,2.524-2.524.127-.127.1-.2-.062-.259a6.921,6.921,0,0,1-1.96-1.166c-.086-.073-.161-.135-.27-.026q-1.012,1.013-2.03,2.02a4.018,4.018,0,0,0,.991.026.734.734,0,0,1,.858.823C1942.847,2134.812,1942.823,2135.142,1942.8,2135.585Z" transform="translate(-1777.858 -1944.91)"/>
    <path id="Path_180" data-name="Path 180" d="M2016.507,2174.528c.062.008.143-.007.18.027.463.417.628-.015.85-.29a8.134,8.134,0,0,1,1.459-1.507,1.306,1.306,0,0,1,.877-.336.7.7,0,0,1,.683.514.636.636,0,0,1-.269.8,6.712,6.712,0,0,0-2.059,2.029c-.164.2-.29.429-.446.635a.721.721,0,0,1-1.177.084,9.311,9.311,0,0,1-.681-.8.672.672,0,0,1-.048-.774A.728.728,0,0,1,2016.507,2174.528Z" transform="translate(-1848.234 -1993.241)"/>
  </g>
</svg>
