<svg xmlns="http://www.w3.org/2000/svg" width="31.792" height="31.085" viewBox="0 0 31.792 31.085"><g id="Group_29" data-name="Group 29" transform="translate(0)"><g id="Group_21" data-name="Group 21" transform="translate(0 0)"><path id="Path_14" fill="#060606" d="M2038.8,1002.828c.651,3.274,1.282,6.544,1.964,9.8a1.648,1.648,0,0,0,1.837,1.35c1.132.018,2.266.014,3.4,0,.716-.008,1.234.233,1.285,1.054.045.72-.421,1.118-1.3,1.125-1.1.009-2.209.007-3.314,0a3.9,3.9,0,0,1-4.088-3.524c-.606-3.068-1.241-6.129-1.824-9.2-.1-.51-.257-.729-.763-.836a3.3,3.3,0,0,1,.653-6.5c1.9-.032,3.8-.033,5.692.007.574.012.684-.178.688-.733a31.7,31.7,0,0,1,.114-4.829,6.368,6.368,0,0,1,6.876-5.4,6.446,6.446,0,0,1,5.732,6.318c.032,1.319.039,2.641,0,3.959-.016.555.147.688.664.678,1.84-.031,3.681-.022,5.521-.009a3.3,3.3,0,0,1,.756,6.509c-.539.129-.562.487-.639.873-.625,3.124-1.229,6.252-1.869,9.372a3.967,3.967,0,0,1-4.657,3.307,1.015,1.015,0,0,1-.925-1.073.986.986,0,0,1,.914-1.074c.224-.028.453-.014.679-.022a1.784,1.784,0,0,0,1.938-1.679c.592-2.981,1.166-5.967,1.77-8.945.087-.427.116-.625-.417-.624q-10.195.025-20.391.016A1.5,1.5,0,0,0,2038.8,1002.828Zm10.517-6.725c1.215,0,2.432-.031,3.645.014.542.02.66-.167.644-.691-.037-1.2.007-2.4-.016-3.6a4.244,4.244,0,1,0-8.475-.083c-.043,1.257.008,2.516-.02,3.774-.011.464.136.6.578.594C2046.891,996.085,2048.106,996.1,2049.321,996.1Zm-.021,4.4h11.967a6.489,6.489,0,0,0,.763-.014,1.08,1.08,0,0,0,.019-2.134,5.09,5.09,0,0,0-.679-.016q-12.093,0-24.187,0a3.752,3.752,0,0,0-.761.032.979.979,0,0,0-.8,1,1,1,0,0,0,.785,1.1,3.555,3.555,0,0,0,.845.036Q2043.275,1000.5,2049.3,1000.5Z" data-name="Path 14" transform="translate(-2033.477 -985.128)"/></g><g id="Group_22" data-name="Group 22" transform="translate(10.522 19.831)"><path id="Path_15" fill="#090909" d="M2100.642,1099.931c-1.328,0-2.656.006-3.984,0-.88-.006-1.341-.393-1.311-1.116.033-.823.552-1.089,1.258-1.09q4.027,0,8.053,0c.707,0,1.228.26,1.27,1.08.037.717-.436,1.121-1.3,1.127C2103.3,1099.937,2101.97,1099.931,2100.642,1099.931Z" data-name="Path 15" transform="translate(-2095.346 -1097.721)"/></g><g id="Group_23" data-name="Group 23" transform="translate(10.522 24.402)"><path id="Path_16" fill="#090909" d="M2100.638,1125.884c-1.328,0-2.656.007-3.984,0-.877-.006-1.341-.4-1.311-1.119.035-.821.552-1.091,1.259-1.091q4.026,0,8.054,0c.706,0,1.228.263,1.27,1.083.037.715-.438,1.122-1.3,1.128C2103.294,1125.891,2101.966,1125.884,2100.638,1125.884Z" data-name="Path 16" transform="translate(-2095.341 -1123.669)"/></g></g></svg>