<svg xmlns="http://www.w3.org/2000/svg" width="15.5" height="14.239" viewBox="0 0 15.5 14.239"><g id="Group_204" data-name="Group 204" transform="translate(-2499.278 -1006.857)"><g id="Group_46" data-name="Group 46" transform="translate(2499.278 1006.857)"><path id="Path_39" fill="#fff" d="M2508.371,1014.968c-1.426,0-2.853.008-4.279-.007-.32,0-.446.043-.368.408a.98.98,0,0,0,1.106.92q3.707.005,7.414,0a1.987,1.987,0,0,1,.421.023.488.488,0,0,1-.04.964,1.986,1.986,0,0,1-.3.005q-3.728,0-7.456,0a1.95,1.95,0,0,1-2.1-1.781q-.591-3.482-1.17-6.966c-.087-.52-.259-.677-.784-.684-.325,0-.65,0-.974,0s-.568-.149-.57-.491c0-.366.241-.508.593-.5.367.008.735-.005,1.1,0a1.552,1.552,0,0,1,1.541,1.26c.06.356.216.379.5.378q5.444-.009,10.887,0a3.266,3.266,0,0,1,.381,0,.5.5,0,0,1,.469.68q-.684,2.659-1.38,5.315a.571.571,0,0,1-.637.48C2511.28,1014.958,2509.825,1014.968,2508.371,1014.968Zm-.117-5.452c-1.708,0-3.416,0-5.124,0-.226,0-.37-.006-.313.31.229,1.276.444,2.555.633,3.837.042.281.141.332.4.331q4.15-.012,8.3,0c.289,0,.378-.1.443-.358.317-1.255.64-2.51.994-3.755.094-.331.012-.372-.289-.37C2511.613,1009.521,2509.933,1009.515,2508.253,1009.515Z" data-name="Path 39" transform="translate(-2499.278 -1006.857)"/></g><g id="Group_47" data-name="Group 47" transform="translate(2508.668 1017.761)"><path id="Path_40" fill="#fff" d="M2611.163,1134.787a1.668,1.668,0,1,1-1.712,1.617A1.674,1.674,0,0,1,2611.163,1134.787Zm.6,1.642a.659.659,0,0,0-1.318.018.676.676,0,0,0,.646.654A.683.683,0,0,0,2611.76,1136.428Z" data-name="Path 40" transform="translate(-2609.449 -1134.786)"/></g><g id="Group_48" data-name="Group 48" transform="translate(2503.19 1017.761)"><path id="Path_41" fill="#fff" d="M2545.178,1136.426a1.64,1.64,0,0,1,1.679-1.643,1.668,1.668,0,0,1,1.644,1.648,1.693,1.693,0,0,1-1.669,1.676A1.668,1.668,0,0,1,2545.178,1136.426Zm2.3-.006a.659.659,0,0,0-.646-.643.661.661,0,0,0-.017,1.321A.69.69,0,0,0,2547.48,1136.42Z" data-name="Path 41" transform="translate(-2545.178 -1134.783)"/></g></g></svg>