<svg xmlns="http://www.w3.org/2000/svg" width="14.313" height="13.242" viewBox="0 0 14.313 13.242">
  <g id="Group_110" data-name="Group 110" transform="translate(0 0)">
    <path id="Path_60" data-name="Path 60" d="M2124.273,2377.361a1.665,1.665,0,0,1,1.554-1.68,1.489,1.489,0,0,1,1.022.328q1.229.962,2.456,1.927c.2.156.407.3.6.463.112.1.168.084.248-.035.383-.579.773-1.152,1.162-1.728q.878-1.3,1.757-2.6,1.272-1.891,2.541-3.784a1.6,1.6,0,0,1,1.714-.727,1.664,1.664,0,0,1,1.245,1.438,2.03,2.03,0,0,1-.382,1.443c-.579.834-1.136,1.684-1.7,2.526q-.814,1.208-1.631,2.414-1.559,2.315-3.117,4.632a1.538,1.538,0,0,1-2.073.551,5.575,5.575,0,0,1-.831-.623c-1.074-.837-2.15-1.673-3.216-2.522a5.748,5.748,0,0,1-.926-.775A1.849,1.849,0,0,1,2124.273,2377.361Z" transform="translate(-2124.273 -2369.479)" fill="#fff"/>
  </g>
</svg>
