<svg xmlns="http://www.w3.org/2000/svg" width="17.599" height="20.437" viewBox="0 0 17.599 20.437">
  <g id="Qt20c6" transform="translate(-3132.742 -2313.348)">
    <g id="Group_51" data-name="Group 51" transform="translate(3132.742 2313.348)">
      <path id="Path_43" data-name="Path 43" d="M3146.484,2333.785h-9.9a2.252,2.252,0,0,1-1.644-1.971c-.112-1.021-.2-2.047-.289-3.07q-.372-4.065-.739-8.13a.624.624,0,0,0-.4-.548,1.322,1.322,0,0,1-.765-1.244q-.01-.386,0-.772a2.181,2.181,0,0,1,2.2-2.189c.605-.01,1.21-.009,1.815,0,.259,0,.445-.063.5-.346a2.706,2.706,0,0,1,1.964-2.167h4.451a2.746,2.746,0,0,1,1.932,2.2c.042.257.2.309.418.308.621,0,1.242.014,1.862,0,2.133-.057,2.757,1.782,2.34,3.489a.663.663,0,0,1-.327.476c-.834.305-.741,1.035-.816,1.689-.026.225-.027.453-.048.679-.291,3.087-.6,6.171-.862,9.26A2.422,2.422,0,0,1,3146.484,2333.785Zm-4.939-16.965c-2.164,0-4.328,0-6.492,0a1.22,1.22,0,0,0-1.3.852,2.543,2.543,0,0,0-.052.766c0,.753.048.8.793.805q3.677,0,7.354,0a3.152,3.152,0,0,1,.63.055.413.413,0,0,1,.347.465.427.427,0,0,1-.41.414,3.788,3.788,0,0,1-.453.013c-2,0-4-.008-5.993,0-1.431.008-1.167-.194-1.053,1.184.263,3.164.583,6.323.88,9.484.03.316.053.634.1.948.1.721.621,1.1,1.527,1.107q4.108.012,8.217,0a2.54,2.54,0,0,0,.5-.052,1.211,1.211,0,0,0,1.039-1.151q.551-5.87,1.095-11.741c.038-.415.186-.7.64-.73a.434.434,0,0,0,.423-.285,1.5,1.5,0,0,0-1.48-2.142Q3144.7,2316.816,3141.544,2316.82Zm-.145-.961c.922,0,1.844,0,2.766,0,.471,0,.569-.15.378-.586a1.476,1.476,0,0,0-1.348-.989c-1.178-.029-2.357-.027-3.535,0a1.556,1.556,0,0,0-1.407,1.106c-.1.322-.044.483.335.477C3139.526,2315.849,3140.463,2315.859,3141.4,2315.859Z" transform="translate(-3132.742 -2313.348)" fill="#f53131"/>
      <path id="Path_44" data-name="Path 44" d="M3225.117,2411.556c0,1.225.007,2.45,0,3.675,0,.353.038.815-.483.816s-.485-.46-.486-.814c-.008-2.449,0-4.9,0-7.349a2.258,2.258,0,0,1,.04-.405.429.429,0,0,1,.469-.4.42.42,0,0,1,.424.4,3.854,3.854,0,0,1,.044.586c0,1.164,0,2.328,0,3.493Z" transform="translate(-3215.836 -2398.567)" fill="#f53131"/>
      <path id="Path_45" data-name="Path 45" d="M3187.706,2411.54q0,1.837,0,3.674a1.325,1.325,0,0,1-.06.536.431.431,0,0,1-.42.288.408.408,0,0,1-.418-.288,1.3,1.3,0,0,1-.057-.4q-.005-3.809,0-7.619a1.137,1.137,0,0,1,.021-.271.448.448,0,0,1,.43-.4.439.439,0,0,1,.475.4,2.43,2.43,0,0,1,.03.5Q3187.709,2409.749,3187.706,2411.54Z" transform="translate(-3181.843 -2398.552)" fill="#f53131"/>
      <path id="Path_46" data-name="Path 46" d="M3262.733,2411.6c0,1.24,0,2.479,0,3.719a1.774,1.774,0,0,1-.058.49.443.443,0,0,1-.831,0,1.773,1.773,0,0,1-.064-.489q-.006-3.7,0-7.393c0-.06,0-.121,0-.181.016-.328.1-.63.5-.618.374.011.453.3.454.612q0,1.928,0,3.855Z" transform="translate(-3250.054 -2398.611)" fill="#f53131"/>
      <path id="Path_47" data-name="Path 47" d="M3255.859,2379.224a2.634,2.634,0,0,1-.4-.028.429.429,0,0,1-.362-.408.422.422,0,0,1,.3-.45,1.551,1.551,0,0,1,.8-.035.448.448,0,0,1,.427.491c-.021.284-.223.409-.5.42-.09,0-.181,0-.271,0Z" transform="translate(-3243.979 -2372.37)" fill="#f53131"/>
    </g>
  </g>
</svg>
