<svg xmlns="http://www.w3.org/2000/svg" width="21.079" height="20.872" viewBox="0 0 21.079 20.872"><g id="Group_210" data-name="Group 210" transform="translate(-691.679 -246.262)"><path id="Path_79" fill="#030303" d="M710.489,250.107c0-.478-.016-.956,0-1.433a1.125,1.125,0,0,1,1.118-1.134,1.144,1.144,0,0,1,1.139,1.175q.018,2.1,0,4.209a1.075,1.075,0,0,1-1.145,1.147q-2.132.019-4.264,0a1.1,1.1,0,0,1-1.137-1.108,1.09,1.09,0,0,1,1.125-1.113c.479-.014.959,0,1.537,0a9.822,9.822,0,0,0-3.052-2.458,8.271,8.271,0,0,0-11.9,7.583c0,.092,0,.185,0,.277a1.114,1.114,0,0,1-1.048,1.245,1.162,1.162,0,0,1-1.17-1.207,10.438,10.438,0,0,1,6.751-10.294,10.133,10.133,0,0,1,11.006,2.268c.32.3.6.636.895.956Z" data-name="Path 79"/><path id="Path_80" fill="#030303" d="M777.905,291.448c0,.553.023,1.108-.008,1.66-.019.331.117.446.41.519.714.177,1.423.375,2.129.578a1.11,1.11,0,0,1,.885,1.411,1.128,1.128,0,0,1-1.482.769c-1.1-.293-2.2-.6-3.293-.925a1.121,1.121,0,0,1-.892-1.228q-.008-2.241,0-4.482a1.129,1.129,0,1,1,2.248-.017C777.914,290.3,777.905,290.876,777.905,291.448Z" data-name="Path 80" transform="translate(-74.659 -37.565)"/><path id="Path_81" fill="#050505" d="M783.776,415.962c-.745.016-1.209-.369-1.236-.94a1,1,0,0,1,1.011-1.068,10.665,10.665,0,0,0,1.574-.263,1,1,0,0,1,.555,1.93A10.065,10.065,0,0,1,783.776,415.962Z" data-name="Path 81" transform="translate(-80.783 -148.829)"/><path id="Path_82" fill="#050505" d="M704.62,372.406a1,1,0,0,1-.587.985.9.9,0,0,1-1.114-.2,6.476,6.476,0,0,1-1.257-1.991.9.9,0,0,1,.416-1.143.933.933,0,0,1,1.252.149c.443.6.83,1.25,1.226,1.886A.788.788,0,0,1,704.62,372.406Z" data-name="Path 82" transform="translate(-8.812 -109.917)"/><path id="Path_83" fill="#050505" d="M736.433,405.336a1.094,1.094,0,0,1,.322.127,9.719,9.719,0,0,0,1.5.679,1,1,0,1,1-.652,1.891,7.331,7.331,0,0,1-1.9-.859.93.93,0,0,1-.388-1.159A1.01,1.01,0,0,1,736.433,405.336Z" data-name="Path 83" transform="translate(-38.742 -141.432)"/><path id="Path_84" fill="#030303" d="M829.219,391.241a.952.952,0,0,1-.97-.605.924.924,0,0,1,.2-1.077c.506-.459,1.008-.92,1.5-1.392a.862.862,0,0,1,1.17-.022.919.919,0,0,1,.327,1.22,6,6,0,0,1-1.908,1.811A.79.79,0,0,1,829.219,391.241Z" data-name="Path 84" transform="translate(-121.346 -125.954)"/></g></svg>