<svg id="Component_1_1" data-name="Component 1 – 1" xmlns="http://www.w3.org/2000/svg" width="190.245" height="245" viewBox="0 0 190.245 245">
  <circle id="Ellipse_61" data-name="Ellipse 61" cx="70.208" cy="70.208" r="70.208" transform="translate(24.618 25.178)" fill="#fff"/>
  <g id="Group_296" data-name="Group 296" transform="translate(52.884 34.917)">
    <g id="Group_293" data-name="Group 293">
      <path id="Path_128" data-name="Path 128" d="M4694.046,1064.515q.8-15.974,1.6-31.947c.378-7.693,5.47-12.856,13.069-12.757,2.655.034,2.874-.967,2.9-3.151.151-12.19,7.767-21.719,18.739-23.667,14.787-2.624,27.309,7.6,27.763,22.924.086,2.9.449,3.994,3.753,3.928a12.189,12.189,0,0,1,12.182,11.683c1.076,20.883,2.132,29.444,3.056,50.334.432,9.762-4.806,14.95-14.684,14.953q-27.645.008-55.288,0c-9.639,0-14.842-5.252-14.483-14.841.372-9.931.936-7.53,1.416-17.456Zm7.852-.113h-.02c-.479,10.135-.943,7.946-1.444,18.08-.223,4.517,1.42,6.425,5.809,6.429q28.734.03,57.468,0c3.927,0,5.817-1.9,5.644-5.7-.944-20.684-1.915-29.043-2.913-49.725-.212-4.4-1.825-5.949-6.2-5.958q-25.317-.052-50.633-.016c-4.519.005-6.083,1.568-6.3,6.181Q4702.575,1049.043,4701.9,1064.4Zm32.763-44.674h9.913c6.525,0,6.974-.587,5.455-7.135-.094-.4-.16-.811-.275-1.207a15.578,15.578,0,0,0-18.491-10.641c-7.477,1.907-12.744,8.455-11.936,17.871.138,1.608,1.227,1.083,2.014,1.09C4725.78,1019.75,4730.221,1019.728,4734.661,1019.728Z" transform="translate(-4692.633 -992.583)" fill="#050505"/>
    </g>
    <g id="Group_294" data-name="Group 294" transform="translate(20.418 39.511)">
      <path id="Path_129" data-name="Path 129" d="M4736.449,1069.909c2.365.327,3.823,1.566,3.737,4.031a3.485,3.485,0,0,1-4.007,3.661,3.45,3.45,0,0,1-3.587-3.776C4732.591,1071.339,4734.085,1070.175,4736.449,1069.909Z" transform="translate(-4732.593 -1069.909)" fill="#050505"/>
    </g>
    <g id="Group_295" data-name="Group 295" transform="translate(56.467 39.511)">
      <path id="Path_130" data-name="Path 130" d="M4806.993,1069.909c2.367.322,3.826,1.558,3.743,4.024a3.483,3.483,0,0,1-4,3.668,3.448,3.448,0,0,1-3.594-3.77C4803.139,1071.346,4804.63,1070.178,4806.993,1069.909Z" transform="translate(-4803.145 -1069.909)" fill="#050505"/>
    </g>
  </g>
  <path id="Path_141" data-name="Path 141" d="M3361.852,2418.713c-3.647-.651-7.363-.749-11.008-1.459q-45.148-8.794-67.365-49.049a88.189,88.189,0,0,1-11.013-48.6c2.2-35.7,19.141-62.454,50.322-79.915a88.818,88.818,0,0,1,48.585-11.082c26.829,1.336,49.357,12.074,67.27,32.106,13.568,15.173,21.167,33.086,23.429,53.291.15,1.341-.054,2.723.464,4.021v11.146a12.725,12.725,0,0,0-.315,1.6,89.479,89.479,0,0,1-10.856,37.46q-22.193,40.181-67.363,49.018c-3.644.709-7.358.807-11,1.458Zm5.661-6.332c49.014-.132,88.871-40.125,88.69-88.993a88.86,88.86,0,0,0-88.888-88.565c-49.042.107-88.854,40.055-88.669,88.971C3278.832,2372.8,3318.668,2412.512,3367.512,2412.381Z" transform="translate(-3272.291 -2228.486)"/>
  <text id="Continue_with:_E-commerce" data-name="Continue with:
E-commerce" transform="translate(94.353 214)" font-size="15" font-family="SegoeUI, Segoe UI"><tspan x="-47.754" y="0">Continue with:</tspan><tspan font-size="20"><tspan x="-55.317" y="26">E-commerce</tspan></tspan></text>
</svg>
