<svg xmlns="http://www.w3.org/2000/svg" width="67.511" height="59.474" viewBox="0 0 67.511 59.474"><g id="JdUFcE" transform="translate(0 0)"><g id="Group_127" data-name="Group 127"><path id="Path_64" fill="#fbb814" d="M3978.38,2449.563a33.172,33.172,0,0,1-4.055,16.239,46.407,46.407,0,0,1-12.517,14.484,77.25,77.25,0,0,1-11.4,7.32c-1.478.8-3.034,1.459-4.551,2.188a2.469,2.469,0,0,1-2.179.032,67.157,67.157,0,0,1-12.129-6.578,57,57,0,0,1-12.972-11.931,37.329,37.329,0,0,1-5.552-9.679,30.552,30.552,0,0,1-2.042-13.64,19.462,19.462,0,0,1,3.961-10.5,16.989,16.989,0,0,1,10.974-6.622,19.851,19.851,0,0,1,13.2,2.569,29.129,29.129,0,0,1,5.025,3.8c.442.393.647.357,1.074-.065a22.82,22.82,0,0,1,6.537-4.537,19.518,19.518,0,0,1,5.5-1.8,18.4,18.4,0,0,1,8,.409,17.511,17.511,0,0,1,7.726,4.6,20.045,20.045,0,0,1,4.712,8.631A17.955,17.955,0,0,1,3978.38,2449.563Z" data-name="Path 64" transform="translate(-3910.875 -2430.589)"/></g></g></svg>