<svg xmlns="http://www.w3.org/2000/svg" id="Component_1_1" width="39" height="39" data-name="Component 1 – 1" viewBox="0 0 39 39"><circle id="Ellipse_27" cx="19.5" cy="19.5" r="19.5" fill="#fbb814" data-name="Ellipse 27"/><g id="JdUFcE" transform="translate(-3898.875 -2417.475)"><g id="Group_127" data-name="Group 127" transform="translate(3910.875 2430.588)"><path id="Path_64" fill="none" stroke="#000" stroke-width="2" d="M3925.874,2434.8a7.36,7.36,0,0,1-.9,3.608,10.3,10.3,0,0,1-2.781,3.218,17.169,17.169,0,0,1-2.532,1.626c-.329.178-.675.324-1.012.486a.548.548,0,0,1-.484.007,14.9,14.9,0,0,1-2.695-1.461,12.67,12.67,0,0,1-2.882-2.651,8.3,8.3,0,0,1-1.233-2.15,6.783,6.783,0,0,1-.454-3.031,4.328,4.328,0,0,1,.88-2.334,3.776,3.776,0,0,1,2.438-1.471,4.411,4.411,0,0,1,2.932.571,6.484,6.484,0,0,1,1.117.845c.1.087.144.079.238-.014a5.071,5.071,0,0,1,1.453-1.008,4.361,4.361,0,0,1,1.223-.4,4.089,4.089,0,0,1,1.778.091,3.887,3.887,0,0,1,1.716,1.023,4.449,4.449,0,0,1,1.047,1.918A3.982,3.982,0,0,1,3925.874,2434.8Z" data-name="Path 64" transform="translate(-3910.875 -2430.588)"/></g></g></svg>