<svg xmlns="http://www.w3.org/2000/svg" width="16.794" height="18.375" viewBox="0 0 16.794 18.375"><g id="Group_17" data-name="Group 17" transform="translate(0 0)"><g id="Group_16" data-name="Group 16"><path id="Path_11" fill="#010101" d="M3499.177,1791.571a.865.865,0,0,1-.694-.381l-.015-.019q-.456-.45-.907-.9c-.429-.429-.873-.873-1.313-1.3a1.343,1.343,0,0,1-.425-1.044c.006-.52.005-1.051,0-1.564s0-1.024,0-1.537a.684.684,0,0,0-.113-.4c-2.074-3.385-4.1-6.7-6.019-9.862l-.02-.022a.844.844,0,0,1-.162-1.017.606.606,0,0,1,.535-.32h15.519a.606.606,0,0,1,.538.328.846.846,0,0,1-.167,1.008l-.02.023c-2.029,3.338-4.1,6.724-6.033,9.887a.492.492,0,0,0-.1.279c.007,1.611.007,3.248.007,4.831v1.412a.6.6,0,0,1-.566.6Zm-8.15-17.164c1.832,3.013,3.756,6.165,5.725,9.378a1.907,1.907,0,0,1,.292,1.047c-.005.506-.005,1.023,0,1.523,0,.518,0,1.052-.005,1.58,0,.1.011.116.059.162.447.435.894.882,1.325,1.314l.172.172v-.03c0-1.582,0-3.217-.007-4.826a1.685,1.685,0,0,1,.276-.916c1.841-3.011,3.8-6.224,5.739-9.4Zm-1.321.155h0Zm-.013-.019h0Z" data-name="Path 11" transform="translate(-3489.416 -1773.196)"/></g></g></svg>