<svg xmlns="http://www.w3.org/2000/svg" width="196.647" height="262.539" viewBox="0 0 196.647 262.539">
  <g id="Component_2_1" data-name="Component 2 – 1" transform="translate(0 0)">
    <g id="Group_298" data-name="Group 298" transform="translate(-109 -565.461)">
      <circle id="Ellipse_63" data-name="Ellipse 63" cx="70.208" cy="70.208" r="70.208" transform="translate(137.266 593.394)" fill="#fff"/>
      <g id="Group_297" data-name="Group 297" transform="translate(109 565.461)">
        <path id="Path_142" data-name="Path 142" d="M3364.865,2425.115c-3.77-.673-7.611-.774-11.378-1.508q-46.667-9.09-69.632-50.7a91.153,91.153,0,0,1-11.384-50.233c2.278-36.9,19.785-64.555,52.015-82.6a91.808,91.808,0,0,1,50.22-11.455c27.732,1.381,51.018,12.48,69.534,33.187,14.025,15.684,21.879,34.2,24.218,55.084.155,1.386-.056,2.815.479,4.157v11.521a13.086,13.086,0,0,0-.326,1.656,92.487,92.487,0,0,1-11.221,38.72q-22.941,41.533-69.629,50.668c-3.767.733-7.606.835-11.375,1.508Zm5.851-6.545c50.664-.136,91.861-41.475,91.675-91.988a91.851,91.851,0,0,0-91.88-91.545c-50.692.111-91.845,41.4-91.652,91.965C3279.052,2377.658,3320.229,2418.705,3370.717,2418.569Z" transform="translate(-3272.291 -2228.486)"/>
        <path id="Path_143" data-name="Path 143" d="M3552.854,2434.333c.522-12,.878-20.628,1.294-29.254a2.564,2.564,0,0,0-1.308-2.64c-4.546-3-6.861-7.327-7.6-12.724-1.162-8.483.921-16.432,3.936-24.141,2.339-5.98,7.217-9.076,13.635-9.109,6.313-.032,11.182,2.9,13.663,8.758a49.908,49.908,0,0,1,4.447,20.264c-.1,7.15-1.968,13.415-8.528,17.368-.88.53-.689,1.282-.656,2.017q.688,15.724,1.4,31.446c.3,6.775.69,13.548.87,20.326.15,5.666-3.568,9.951-9.235,10.995a11.27,11.27,0,0,1-12.239-6.855,14.042,14.042,0,0,1-.632-6.045C3552.279,2446.814,3552.641,2438.889,3552.854,2434.333Zm13.375-4.964h.017q-.625-13.61-1.257-27.22a3.778,3.778,0,0,1,2.28-4.031,15.68,15.68,0,0,0,2.8-1.63c3.488-2.609,4.109-6.449,4.288-10.422.284-6.336-1.576-12.27-3.781-18.068-1.275-3.355-4.131-5.029-7.7-5.015-3.491.013-6.318,1.655-7.57,4.929-2.237,5.854-4.064,11.848-3.829,18.254.2,5.422,1.883,9.881,7.355,12.112,1.731.706,2.107,2.237,2.026,3.971q-1.05,22.523-2.075,45.047c-.138,3-.312,6.006-.385,9.01-.061,2.512.968,3.991,2.983,4.555,3.628,1.015,6.239-1.015,6.078-4.847C3567.087,2447.131,3566.644,2438.251,3566.229,2429.37Z" transform="translate(-3440.014 -2307.222)"/>
        <path id="Path_144" data-name="Path 144" d="M3438.2,2427.7c-.459-9.073-.884-18.148-1.4-27.218a5.668,5.668,0,0,1,1.789-4.81c2.364-2.249,4.6-4.635,6.952-6.892a3.353,3.353,0,0,0,1.1-2.685c-.041-8.382-.024-16.765-.019-25.148a9.683,9.683,0,0,1,.083-1.913,3.077,3.077,0,0,1,3.051-2.687,2.957,2.957,0,0,1,3.156,2.284,8.224,8.224,0,0,1,.24,2.271c.015,8.958-.017,17.917.033,26.875a5.651,5.651,0,0,1-1.814,4.438c-2.362,2.25-4.616,4.614-6.955,6.889a2.792,2.792,0,0,0-.96,2.347c.618,12.076,1.182,24.155,1.779,36.232.294,5.943.651,11.882.94,17.825.33,6.785-4.5,12.091-11.006,12.141-6.388.05-11.35-5.157-11.086-11.874.325-8.31.835-16.613,1.249-24.919.491-9.84.953-19.682,1.465-29.522a2.6,2.6,0,0,0-.914-2.174c-2.425-2.37-4.792-4.8-7.216-7.171a4.949,4.949,0,0,1-1.592-3.753c.026-9.278.012-18.557.015-27.835a6.917,6.917,0,0,1,.064-1.148,3.356,3.356,0,0,1,3.266-2.94,3.236,3.236,0,0,1,3.171,3.215c.09,2.3.038,4.606.039,6.91,0,6.591.022,13.182-.021,19.773a3.159,3.159,0,0,0,1.047,2.511c2.394,2.31,4.69,4.721,7.086,7.03a5.376,5.376,0,0,1,1.716,4.46q-1.334,25.683-2.6,51.371c-.067,1.342-.2,2.681-.248,4.023-.121,3.267,1.774,5.526,4.554,5.472,2.8-.054,4.6-2.311,4.433-5.585q-.707-13.9-1.425-27.793Z" transform="translate(-3361.361 -2307.132)"/>
        <path id="Path_145" data-name="Path 145" d="M3651.881,2414.118a58.113,58.113,0,0,0-12.113-35.219c-.542-.712-1.111-1.408-1.613-2.148-1.213-1.79-1.02-3.679.453-4.781,1.527-1.143,3.351-.865,4.731.82a65.565,65.565,0,0,1-3.8,87.9c-1.485,1.528-3.42,1.689-4.791.483-1.469-1.292-1.53-3.2.033-4.921a72.489,72.489,0,0,0,8.458-10.889A59.161,59.161,0,0,0,3651.881,2414.118Z" transform="translate(-3494.595 -2316.335)"/>
        <path id="Path_146" data-name="Path 146" d="M3357.614,2419.067A64.906,64.906,0,0,1,3369.859,2382c1.26-1.79,3.057-2.223,4.652-1.219,1.623,1.023,2.012,3,.73,4.882a58.193,58.193,0,0,0-7.6,14.574c-7.108,21.829-3.405,41.584,11.512,59.138.662.78,1.393,1.5,2.041,2.3,1.38,1.686,1.372,3.56.02,4.809-1.453,1.343-3.318,1.188-4.93-.49a65.589,65.589,0,0,1-18.669-46.922Z" transform="translate(-3324.783 -2321.854)"/>
        <path id="Path_147" data-name="Path 147" d="M3489.318,2313.784a64.966,64.966,0,0,1,13.26,1.717c2.122.515,3.218,2.032,2.854,3.847a3.277,3.277,0,0,1-4.239,2.511,60.543,60.543,0,0,0-29.381.606c-1.66.452-3.274,1.071-4.932,1.534-2.127.6-3.753-.19-4.312-2-.572-1.842.261-3.42,2.323-4.181A68.237,68.237,0,0,1,3489.318,2313.784Z" transform="translate(-3389.245 -2280.963)"/>
        <path id="Path_148" data-name="Path 148" d="M3442.747,2372.813c0-4.156-.021-8.313.008-12.469.017-2.516,1.186-3.956,3.155-4.016,2.01-.061,3.369,1.483,3.379,4.035q.046,12.373,0,24.747c-.011,2.478-1.291,3.888-3.3,3.881-2.041-.008-3.211-1.369-3.231-3.9C3442.722,2381,3442.747,2376.906,3442.747,2372.813Z" transform="translate(-3377.154 -2307.136)"/>
        <path id="Path_149" data-name="Path 149" d="M3474.7,2372.826c0,4.221.04,8.442-.017,12.661-.029,2.144-1.208,3.4-3.039,3.5-1.9.1-3.231-1.157-3.463-3.313a14.331,14.331,0,0,1-.028-1.534q0-9.688,0-19.375c0-1.343-.009-2.686.005-4.029a8.717,8.717,0,0,1,.114-1.524,3.275,3.275,0,0,1,3.286-2.882,3.153,3.153,0,0,1,3.1,3.262c.075,4.41.023,8.823.023,13.235Z" transform="translate(-3392.786 -2307.136)"/>
        <path id="Path_150" data-name="Path 150" d="M3511.052,2636.8c2.173-.125,4.344-.265,6.516-.367,2.374-.112,3.838.947,4.029,2.869.187,1.876-1.112,3.352-3.4,3.612a63.655,63.655,0,0,1-14.363,0c-2.3-.261-3.541-1.716-3.349-3.647.19-1.906,1.647-2.937,4.053-2.826C3506.708,2636.545,3508.879,2636.682,3511.052,2636.8Z" transform="translate(-3412.667 -2479.459)"/>
      </g>
    </g>
    <text id="Continue_with:_Food" data-name="Continue with:
Food" transform="translate(98 231.539)" font-size="15" font-family="SegoeUI, Segoe UI"><tspan x="-47.754" y="0">Continue with:</tspan><tspan font-size="20"><tspan x="-22.49" y="26">Food</tspan></tspan></text>
  </g>
</svg>
