<svg xmlns="http://www.w3.org/2000/svg" width="41.5" height="40.413" viewBox="0 0 41.5 40.413"><g id="NhhYb4.tif" transform="translate(-1694.364 -2119.196)"><g id="Group_316" data-name="Group 316" transform="translate(1694.364 2119.196)"><path id="Path_160" d="M1709.34,2227.564h-12.612c-.138,0-.275,0-.413,0a1.8,1.8,0,0,1-1.921-2.2c.181-1.363.383-2.723.576-4.085q.943-6.672,1.885-13.344a1.835,1.835,0,0,1,1.936-1.74c.535-.006,1.072-.025,1.6.007.4.024.548-.082.541-.519q-.04-2.5-.007-5a6.632,6.632,0,0,1,5.267-6.48,6.723,6.723,0,0,1,8.273,6.619q0,4.219,0,8.439a1.841,1.841,0,1,1-3.672.017c0-.413-.02-.827.007-1.238.02-.31-.091-.387-.388-.384-1.208.014-2.415.008-3.623,0-.575,0-.916-.282-.913-.732s.347-.73.922-.732c1.192,0,2.385-.01,3.577,0,.3,0,.431-.046.428-.392-.018-1.712,0-3.424-.01-5.136a3.1,3.1,0,1,0-6.2,0c-.014,2.874,0,5.749-.006,8.623a1.832,1.832,0,1,1-3.66.136,12.95,12.95,0,0,1,0-1.33c.018-.331-.068-.467-.428-.446-.533.031-1.07.022-1.6,0-.373-.013-.545.116-.6.508q-.54,3.974-1.123,7.943c-.033.225.015.33.225.412q4.932,1.916,9.86,3.844a.757.757,0,0,0,.576-.018q5.055-1.916,10.114-3.821a.342.342,0,0,0,.262-.437q-.567-3.925-1.113-7.852c-.047-.333-.134-.556-.536-.607a.679.679,0,0,1-.545-.825.738.738,0,0,1,.8-.6,1.8,1.8,0,0,1,1.692,1.589q.644,4.492,1.275,8.986.594,4.2,1.186,8.4c.042.3-.041.739.121.858.213.156.612.06.931.068.183,0,.367,0,.55,0,.571.01.9.292.9.752s-.323.712-.88.715c-1.391.006-2.782,0-4.173,0Zm-1.647-1.47h11.186c.7,0,.735-.031.636-.738-.327-2.345-.673-4.687-.986-7.034-.049-.364-.123-.415-.466-.283-3.179,1.218-6.368,2.409-9.545,3.631a2.582,2.582,0,0,1-1.994-.012c-3.064-1.217-6.141-2.4-9.21-3.609-.254-.1-.4-.141-.444.215-.327,2.406-.673,4.81-1.007,7.216-.075.538,0,.614.553.614Zm4.574-21.333v2.017c0,.825,0,1.65,0,2.475a.373.373,0,0,0,.229.405.358.358,0,0,0,.385-.068c.147-.129.121-.3.121-.469q0-4.24,0-8.48a4.808,4.808,0,0,0-.145-1.134,5.24,5.24,0,0,0-5.85-3.955,5.172,5.172,0,0,0-4.611,5.141c-.016,2.093,0,4.187,0,6.28q0,1.146,0,2.292a.363.363,0,0,0,.291.407.308.308,0,0,0,.386-.164,1.282,1.282,0,0,0,.053-.448q0-4.126,0-8.251a5.284,5.284,0,0,1,.115-1.183,4.57,4.57,0,0,1,9.022.964C1712.279,2201.979,1712.267,2203.37,1712.267,2204.76Z" data-name="Path 160" transform="translate(-1694.368 -2187.153)"/><path id="Path_161" d="M1941.255,2136.45c.019-.32.022-.643.061-.96.031-.252-.053-.321-.3-.3-.594.052-1.189.076-1.783.124a.78.78,0,0,1-.885-.411.772.772,0,0,1,.254-.941c1.083-1.077,2.157-2.165,3.247-3.236.215-.211.279-.344.087-.637a6.9,6.9,0,0,1,.06-7.807,6.809,6.809,0,0,1,7.191-2.952,6.93,6.93,0,0,1,5.519,5.474,6.806,6.806,0,0,1-.993,5.259.435.435,0,0,0,.079.672c1.071,1.046,2.12,2.115,3.186,3.167.281.277.484.572.314.971-.18.424-.55.475-.96.439-.532-.047-1.07-.051-1.6-.121-.4-.053-.457.11-.421.451.059.546.076,1.1.122,1.645a.774.774,0,0,1-.429.877.788.788,0,0,1-.939-.269q-2.133-2.146-4.277-4.281a1.463,1.463,0,0,0-1.971.018q-2.106,2.108-4.212,4.216c-.289.291-.589.506-1.009.31a.806.806,0,0,1-.408-.933c.026-.258.038-.518.056-.777Zm6.59-4.628a5.57,5.57,0,1,0-5.6-5.536A5.563,5.563,0,0,0,1947.846,2131.822Zm5,3.626c-.018-.245-.036-.512-.057-.779-.057-.746.25-1.057.985-1,.277.021.555.035.91.056-.725-.734-1.378-1.394-2.029-2.057-.093-.094-.171-.166-.3-.049a7.358,7.358,0,0,1-2.1,1.244Zm-10.044.137c.892-.892,1.707-1.709,2.524-2.524.127-.127.1-.2-.062-.259a6.921,6.921,0,0,1-1.96-1.166c-.086-.073-.161-.135-.27-.026q-1.012,1.013-2.03,2.02a4.018,4.018,0,0,0,.991.026.734.734,0,0,1,.858.823C1942.847,2134.812,1942.823,2135.142,1942.8,2135.585Z" data-name="Path 161" transform="translate(-1915.858 -2119.196)"/><path id="Path_162" d="M1698.839,2138.694a.9.9,0,0,1-.879-.674,4.276,4.276,0,0,0-2.94-3.068.909.909,0,0,1-.655-.948.927.927,0,0,1,.7-.919,7.815,7.815,0,0,0,1.236-.481,3.189,3.189,0,0,0,1.665-1.973.991.991,0,0,1,1.95-.059,3.88,3.88,0,0,0,2.609,2.5,1,1,0,0,1,.085,1.951,4.722,4.722,0,0,0-2.752,2.9A1,1,0,0,1,1698.839,2138.694Zm.136-6.673a5.133,5.133,0,0,1-2.3,2.053,5.668,5.668,0,0,1,2.248,2.376,6.591,6.591,0,0,1,2.213-2.353A5.369,5.369,0,0,1,1698.974,2132.021Z" data-name="Path 162" transform="translate(-1694.365 -2128.811)"/><path id="Path_163" d="M2002.945,2367.506a.893.893,0,0,1-.617.789,4.7,4.7,0,0,0-2.838,2.982.974.974,0,0,1-1.856-.063,4.1,4.1,0,0,0-2.826-2.932.919.919,0,0,1-.674-.936.935.935,0,0,1,.691-.925,7.924,7.924,0,0,0,1.234-.483,3.132,3.132,0,0,0,1.6-1.91.993.993,0,0,1,.959-.831c.458-.012.782.245.985.8a3.759,3.759,0,0,0,2.515,2.406A1.026,1.026,0,0,1,2002.945,2367.506Zm-4.284-2.084a4.973,4.973,0,0,1-2.218,1.979,5.54,5.54,0,0,1,2.172,2.287,6.23,6.23,0,0,1,2.126-2.26A5.25,5.25,0,0,1,1998.66,2365.421Z" data-name="Path 163" transform="translate(-1966.582 -2340.769)"/><path id="Path_164" d="M1811.5,2426.721c.671,0,1.342-.005,2.012,0a.741.741,0,0,1,.823.725.751.751,0,0,1-.817.739q-2.012.014-4.025,0a.748.748,0,0,1-.8-.755.735.735,0,0,1,.8-.706c.671-.01,1.341,0,2.012,0Z" data-name="Path 164" transform="translate(-1798.18 -2398.455)"/><path id="Path_165" d="M2022.722,2542.914a.747.747,0,0,1,.718.74.731.731,0,1,1-1.462-.023A.758.758,0,0,1,2022.722,2542.914Z" data-name="Path 165" transform="translate(-1991.867 -2503.97)"/><path id="Path_166" d="M2016.507,2174.528c.062.008.143-.007.18.027.463.417.628-.015.85-.29a8.134,8.134,0,0,1,1.459-1.507,1.306,1.306,0,0,1,.877-.336.7.7,0,0,1,.683.514.636.636,0,0,1-.269.8,6.712,6.712,0,0,0-2.059,2.029c-.164.2-.29.429-.446.635a.721.721,0,0,1-1.177.084,9.311,9.311,0,0,1-.681-.8.672.672,0,0,1-.048-.774A.728.728,0,0,1,2016.507,2174.528Z" data-name="Path 166" transform="translate(-1986.234 -2167.527)"/></g></g></svg>