<svg xmlns="http://www.w3.org/2000/svg" width="32.218" height="26.774" viewBox="0 0 32.218 26.774">
  <g id="Group_312" data-name="Group 312" transform="translate(0)">
    <g id="Group_18" data-name="Group 18" transform="translate(0)">
      <path id="Path_12" data-name="Path 12" d="M4905.749,1786.681c-.552.314-.943.533-1.331.756-1.182.682-1.814.692-2.287.033-.448-.623-.177-1.126.963-1.767q4.385-2.466,8.773-4.928c1.6-.9,3.2-1.781,4.783-2.691,1.519-.874,1.536-.836,3.048.028q6.706,3.834,13.433,7.638c.984.559,1.235,1.073.821,1.667s-1.146.615-2.142.051c-4.4-2.494-8.815-4.974-13.2-7.495-.864-.5-.107-.485-.959.007-2.927,1.69-5.882,3.343-8.846,4.983a1.065,1.065,0,0,0-.666,1.06c.024,4.711.012,9.422.016,14.134,0,1.421.607,1.956,2.238,1.958,5.619,0,9.781,0,15.4,0,1.558,0,2.172-.554,2.176-1.924.006-1.9,0-3.791,0-5.687,0-.922.429-1.4,1.213-1.389s1.187.487,1.19,1.412c.006,1.951.019,3.9,0,5.854-.025,2.264-1.81,3.833-4.366,3.837-5.778.01-10.1.011-15.875,0-2.61,0-4.374-1.575-4.383-3.906-.016-4.181,0-8.363,0-12.545Z" transform="translate(-4901.926 -1777.447)" fill="#070707"/>
    </g>
    <g id="Group_19" data-name="Group 19" transform="translate(13.76 11.604)">
      <path id="Path_13" data-name="Path 13" d="M4994.58,1853.644c.409,0,.818-.02,1.225,0a1.105,1.105,0,0,1,1.159,1.118,1.051,1.051,0,0,1-1.037,1.215,20.913,20.913,0,0,1-2.634,0,1.04,1.04,0,0,1-1.023-1.137,1.1,1.1,0,0,1,1.086-1.188C4993.76,1853.612,4994.172,1853.645,4994.58,1853.644Z" transform="translate(-4992.27 -1853.632)" fill="#090909"/>
    </g>
  </g>
</svg>
