<svg xmlns="http://www.w3.org/2000/svg" id="Component_3_1" width="34" height="29.647" data-name="Component 3 – 1" viewBox="0 0 34 29.647"><g id="Group_411" data-name="Group 411" transform="translate(10.232 6.742)"><text id="HOT" font-family="SegoeUI, Segoe UI" font-size="12" transform="translate(-0.233 11.998)"><tspan x="0" y="0">HOT</tspan></text></g><g id="Group_413" data-name="Group 413"><g id="Group_412" data-name="Group 412" transform="translate(0 0)"><path id="Path_205" d="M-1815.286-832.406q0,1.539,0,3.079c0,.173-.017.346-.032.519a.533.533,0,0,1-.557.538.717.717,0,0,1-.75-.7q0-2.645.006-5.291a11.644,11.644,0,0,1,.078-1.493.542.542,0,0,1,.385-.5.627.627,0,0,1,.645.121.618.618,0,0,1,.244.535c-.015,1.062-.007,2.125-.007,3.187Z" data-name="Path 205" transform="translate(1830.766 836.29)"/><path id="Path_206" d="M-2040.658-735.767a.686.686,0,0,1-.4.6.532.532,0,0,1-.624-.072,12.509,12.509,0,0,1-.988-.909c-1.205-1.206-2.429-2.391-3.6-3.63a4.084,4.084,0,0,1-.386-.466.547.547,0,0,1,.122-.739.537.537,0,0,1,.722-.113,4.329,4.329,0,0,1,.515.428q2.1,2.024,4.122,4.12c.145.15.275.315.406.479A.425.425,0,0,1-2040.658-735.767Z" data-name="Path 206" transform="translate(2050.897 745.317)"/><path id="Path_207" d="M-2138.369-509.191h-3.3a.663.663,0,0,1-.588-.893.6.6,0,0,1,.521-.4c.8-.065,1.6-.039,2.405-.039,1.5,0,3.006.012,4.509.006a.436.436,0,0,1,.4.22.766.766,0,0,1,.111.68.468.468,0,0,1-.426.371c-.483.052-.968.039-1.451.045-.73.009-1.46,0-2.189,0Z" data-name="Path 207" transform="translate(2142.299 524.668)"/><path id="Path_208" d="M-1815.41-334.5c0,1.31,0,2.386-.047,3.462-.018.387-.179.574-.533.6a.6.6,0,0,1-.68-.523,4.9,4.9,0,0,1-.069-.863c-.026-1.929-.054-3.857.021-5.785a2.642,2.642,0,0,1,.047-.386.569.569,0,0,1,.6-.473c.378.028.584.206.609.544C-1815.367-336.712-1815.436-335.491-1815.41-334.5Z" data-name="Path 208" transform="translate(1830.898 360.088)"/><path id="Path_209" d="M-2040.511-387.54a.627.627,0,0,1-.2.443c-.334.4-.709.761-1.08,1.124-1.156,1.131-2.3,2.275-3.5,3.363a3.943,3.943,0,0,1-.371.3.494.494,0,0,1-.715-.07c-.266-.265-.287-.424-.091-.721a4.476,4.476,0,0,1,.541-.647q1.96-2.023,3.985-3.98c.125-.12.261-.228.393-.339a.563.563,0,0,1,.664-.085A.673.673,0,0,1-2040.511-387.54Z" data-name="Path 209" transform="translate(2050.75 407.677)"/><path id="Path_210" d="M-1693.97-640.122a.677.677,0,0,1-.6-.391.525.525,0,0,1,.058-.607,2.567,2.567,0,0,1,.664-.644.494.494,0,0,1,.584-.068.749.749,0,0,1,.392.634A1.372,1.372,0,0,1-1693.97-640.122Z" data-name="Path 210" transform="translate(1714.078 650.34)"/><path id="Path_211" d="M-1694.01-388.267a.613.613,0,0,1,.375.117,2.15,2.15,0,0,1,.539.613.562.562,0,0,1-.111.746.577.577,0,0,1-.762.13,1.927,1.927,0,0,1-.7-.667.625.625,0,0,1,.051-.655C-1694.483-388.239-1694.235-388.24-1694.01-388.267Z" data-name="Path 211" transform="translate(1714.167 407.717)"/></g></g></svg>