<svg xmlns="http://www.w3.org/2000/svg" id="Group_199" width="25" height="25" data-name="Group 199" viewBox="0 0 25 25"><g id="Group_194" data-name="Group 194" transform="translate(0 0)"><g id="Group_193" data-name="Group 193" transform="translate(0 0)"><path id="Path_76" d="M17.188,0H7.812A7.813,7.813,0,0,0,0,7.812v9.375A7.813,7.813,0,0,0,7.812,25h9.375A7.813,7.813,0,0,0,25,17.188V7.812A7.813,7.813,0,0,0,17.188,0Zm5.469,17.188a5.475,5.475,0,0,1-5.469,5.469H7.812a5.475,5.475,0,0,1-5.469-5.469V7.812A5.475,5.475,0,0,1,7.812,2.344h9.375a5.475,5.475,0,0,1,5.469,5.469Z" data-name="Path 76" transform="translate(0 0)"/></g></g><g id="Group_196" data-name="Group 196" transform="translate(6.25 6.25)"><g id="Group_195" data-name="Group 195"><path id="Path_77" d="M134.25,128a6.25,6.25,0,1,0,6.25,6.25A6.25,6.25,0,0,0,134.25,128Zm0,10.156a3.906,3.906,0,1,1,3.906-3.906A3.912,3.912,0,0,1,134.25,138.156Z" data-name="Path 77" transform="translate(-128 -128)"/></g></g><g id="Group_198" data-name="Group 198" transform="translate(18.386 4.948)"><g id="Group_197" data-name="Group 197"><circle id="Ellipse_47" cx=".833" cy=".833" r=".833" data-name="Ellipse 47"/></g></g></svg>