<svg xmlns="http://www.w3.org/2000/svg" width="34.792" height="32.266" viewBox="0 0 34.792 32.266">
  <g id="SgKP62" transform="translate(-3200.174 -701.912)">
    <g id="Group_266" data-name="Group 266" transform="translate(3200.174 701.912)">
      <path id="Path_107" data-name="Path 107" d="M3210.115,701.917c2.081,0,4.162-.016,6.242,0a3.7,3.7,0,0,1,3.661,3.226,13.952,13.952,0,0,1,.033,1.912q0,3.535,0,7.069c0,.174.064.2.216.2q3.665-.007,7.33,0c1.233,0,2.465-.009,3.7,0a3.708,3.708,0,0,1,3.669,3.684q.012,6.232,0,12.464a3.7,3.7,0,0,1-3.7,3.7q-6.254.013-12.507,0a3.712,3.712,0,0,1-3.666-3.668c-.013-2.835-.008-5.67,0-8.5,0-.2-.054-.235-.24-.235q-5.427.009-10.854.007a3.736,3.736,0,0,1-3.812-3.771q-.011-6.156,0-12.311a3.733,3.733,0,0,1,3.846-3.778c2.03.011,4.06,0,6.09,0Zm.023,2.484q-3.066,0-6.132,0a1.22,1.22,0,0,0-1.341,1.354v12.156a1.251,1.251,0,0,0,1.393,1.376c1.457,0,2.914,0,4.371,0q3.229,0,6.459,0c.153,0,.2-.044.194-.2-.009-.369-.016-.74,0-1.109a3.635,3.635,0,0,1,2.272-3.344.292.292,0,0,0,.211-.315q-.009-4.306,0-8.612a1.222,1.222,0,0,0-1.336-1.315C3214.2,704.4,3212.168,704.4,3210.138,704.4Zm19.339,16.5c-.446.113-.861.232-1.283.321a7.13,7.13,0,0,1-2.564.2,2.007,2.007,0,0,1-1.462-.8,1.272,1.272,0,0,1,.528-1.992,2.974,2.974,0,0,1,1.052-.245,8.52,8.52,0,0,1,2.457.246c.169.04.244.034.231-.176a9.126,9.126,0,0,1,0-.957.249.249,0,0,0-.207-.292,7.858,7.858,0,0,0-3.991-.259,3.647,3.647,0,0,0-2.963,2.511,3.4,3.4,0,0,0,1.066,3.732c.141.115.069.138-.035.2a5.972,5.972,0,0,0-2.329,2.163,3.531,3.531,0,0,0,.415,4.324,5.2,5.2,0,0,0,2.184,1.34,9.936,9.936,0,0,0,5.192.273,7.856,7.856,0,0,0,3.729-1.714,1.215,1.215,0,0,0,.343-.372,18.7,18.7,0,0,1-4.276.073,7.7,7.7,0,0,1-2.8-.75,2.855,2.855,0,0,1-1.712-2.252,2.286,2.286,0,0,1,1.244-2.427,4.148,4.148,0,0,1,3.925.125c.147.084.194.085.245-.085.165-.548.345-1.091.519-1.636Z" transform="translate(-3200.174 -701.912)"/>
      <path id="Path_108" data-name="Path 108" d="M3314.411,821.439q0-2.044,0-4.089a1.233,1.233,0,0,1,1.337-1.341c1.175,0,2.349,0,3.523,0a1.5,1.5,0,0,1,1.028.391q1.745,1.506,3.5,3a1.41,1.41,0,0,1,.542,1.152c-.008,1.733,0,3.466,0,5.2,0,.147-.032.2-.19.2-.7-.008-1.392-.01-2.088,0-.179,0-.215-.061-.213-.224.008-.689,0-1.378.006-2.066,0-.147-.031-.2-.189-.2q-2.295.008-4.59,0c-.155,0-.193.046-.191.2.008.7,0,1.392.008,2.088,0,.166-.045.207-.207.2q-1.033-.013-2.066,0c-.17,0-.221-.044-.22-.216.006-1.428,0-2.857,0-4.285Zm7.362-.465a.39.39,0,0,0-.04-.075q-1.372-1.173-2.744-2.345a.283.283,0,0,0-.2-.062c-.573,0-1.146.005-1.718,0-.148,0-.18.05-.179.187.006.7.011,1.392,0,2.088,0,.183.064.212.224.211,1.03-.005,2.059,0,3.089,0Z" transform="translate(-3309.436 -811.041)"/>
    </g>
  </g>
</svg>
