<svg xmlns="http://www.w3.org/2000/svg" width="171.378" height="65.487" viewBox="0 0 171.378 65.487">
  <g id="Group_86" data-name="Group 86" transform="translate(0 0)">
    <path id="Path_1" data-name="Path 1" d="M443.015,830.1a4.386,4.386,0,0,0-4.1,4.625V882.2c-11.545-.615-20.742-4.42-27.357-11.355-13.022-13.654-12.172-35.214-12.161-35.478a4.144,4.144,0,0,0-.079-1.016,4.08,4.08,0,1,0-8.156-.074,4.084,4.084,0,0,0-.095.674c-.014.27-.093,2.153.075,5.063v45.545a4.127,4.127,0,1,0,8.193,0V868.414a45.784,45.784,0,0,0,6.14,8.14c8.886,9.348,21.273,14.088,36.815,14.088a4.154,4.154,0,0,0,2.857-1.138,4.772,4.772,0,0,0,1.959-3.942V834.729A4.385,4.385,0,0,0,443.015,830.1Z" transform="translate(-275.733 -826.059)" fill="#1c1c1c"/>
    <path id="Path_2" data-name="Path 2" d="M249.833,878.152H215.382V828.077a4.5,4.5,0,0,0-4.453-4.454,4.545,4.545,0,0,0-3.272,1.318,4.216,4.216,0,0,0-1.363,3.136v54.71a4.211,4.211,0,0,0,1.363,3.136,4.537,4.537,0,0,0,3.272,1.317h38.9a4.536,4.536,0,0,0,3.271-1.317,4.211,4.211,0,0,0,1.363-3.136,4.654,4.654,0,0,0-4.634-4.635Z" transform="translate(-206.294 -823.623)" fill="#1c1c1c"/>
    <path id="Path_3" data-name="Path 3" d="M338.031,853.793h-9.941a4.706,4.706,0,0,0,0,9.412H333.2a22.517,22.517,0,0,1-1.218,4.086,23.145,23.145,0,0,1-4.591,7.225,21.515,21.515,0,0,1-6.768,4.86,20.388,20.388,0,0,1-16.63,0,21.485,21.485,0,0,1-6.772-4.86,23.649,23.649,0,0,1,0-32.173A21.581,21.581,0,0,1,304,837.48a20.4,20.4,0,0,1,16.63,0,21.611,21.611,0,0,1,6.768,4.864,4.514,4.514,0,0,0,6.409-6.359,42.814,42.814,0,0,0-3.685-3.308,30.834,30.834,0,0,0-5.992-3.554,29.149,29.149,0,0,0-23.629,0,30.413,30.413,0,0,0-9.681,6.863,32.979,32.979,0,0,0-6.541,10.131,31.649,31.649,0,0,0-2.411,12.315,32.58,32.58,0,0,0,8.952,22.491,30.764,30.764,0,0,0,9.681,6.818,29.193,29.193,0,0,0,23.629,0,30.827,30.827,0,0,0,9.677-6.818,32.5,32.5,0,0,0,6.545-10.131,32.054,32.054,0,0,0,2.407-12.36c-.008-.079-.024-.154-.035-.232A4.717,4.717,0,0,0,338.031,853.793Z" transform="translate(-234.698 -824.749)" fill="#1c1c1c"/>
  </g>
</svg>
