<svg xmlns="http://www.w3.org/2000/svg" width="21.552" height="19.335" viewBox="0 0 21.552 19.335">
  <g id="Group_341" data-name="Group 341" transform="translate(0 0)">
    <g id="Group_334" data-name="Group 334" transform="translate(0 0)">
      <path id="Path_185" data-name="Path 185" d="M1192.606,2118.781h-18.012a1.772,1.772,0,0,1-1.77-1.77v-5.631a1.772,1.772,0,0,1,1.77-1.77h18.012a1.772,1.772,0,0,1,1.77,1.77v5.631A1.772,1.772,0,0,1,1192.606,2118.781Zm-18.012-8.527a1.127,1.127,0,0,0-1.125,1.126v5.631a1.127,1.127,0,0,0,1.125,1.125h18.012a1.127,1.127,0,0,0,1.125-1.125v-5.631a1.127,1.127,0,0,0-1.125-1.126Z" transform="translate(-1172.824 -2109.61)" fill="#575757"/>
    </g>
    <g id="Group_335" data-name="Group 335" transform="translate(0 10.164)">
      <path id="Path_186" data-name="Path 186" d="M1192.606,2197.628h-18.012a1.772,1.772,0,0,1-1.77-1.77v-5.631a1.772,1.772,0,0,1,1.77-1.77h18.012a1.772,1.772,0,0,1,1.77,1.77v5.631A1.772,1.772,0,0,1,1192.606,2197.628Zm-18.012-8.527a1.127,1.127,0,0,0-1.125,1.126v5.631a1.127,1.127,0,0,0,1.125,1.125h18.012a1.127,1.127,0,0,0,1.125-1.125v-5.631a1.127,1.127,0,0,0-1.125-1.126Z" transform="translate(-1172.824 -2188.457)" fill="#575757"/>
    </g>
  </g>
</svg>
