<svg xmlns="http://www.w3.org/2000/svg" width="12.923" height="18.626" viewBox="0 0 12.923 18.626"><g id="Group_32" data-name="Group 32" transform="translate(0 0)"><g id="Group_30" data-name="Group 30" transform="translate(0 0)"><path id="Path_20" d="M5365.852,1791.357a6.065,6.065,0,0,1,1.2.647,1.694,1.694,0,0,1,0,2.9,5.762,5.762,0,0,1-4.174.931,5.1,5.1,0,0,1-2.273-.726,1.788,1.788,0,0,1-.013-3.284c.275-.174.578-.3.881-.458-.015-.191-.173-.3-.276-.435q-1.288-1.67-2.586-3.332a6.251,6.251,0,0,1-.3-7.179,6.349,6.349,0,0,1,11.649,2.371,6.126,6.126,0,0,1-1.278,4.928C5367.746,1788.91,5366.821,1790.11,5365.852,1791.357Zm-2.145-13.043a5.379,5.379,0,0,0-4.889,3.013,5.2,5.2,0,0,0,.442,5.686c1.367,1.917,2.782,3.8,4.156,5.713.238.33.334.294.552-.008,1.377-1.91,2.794-3.793,4.157-5.713a5.2,5.2,0,0,0,.43-5.686A5.369,5.369,0,0,0,5363.707,1778.313Zm-.042,16.688a5.06,5.06,0,0,0,1.251-.122,3.673,3.673,0,0,0,.786-.225c.568-.244,1.263-.478,1.247-1.208s-.716-.928-1.278-1.191c-.25-.117-.385-.061-.525.174-.316.532-.656,1.051-1,1.565-.309.46-.606.455-.92-.009-.255-.377-.5-.763-.742-1.147-.507-.79-.547-.8-1.375-.295-.939.573-.948,1.26-.013,1.829A5.057,5.057,0,0,0,5363.666,1795Z" data-name="Path 20" transform="translate(-5357.218 -1777.351)"/><path id="Path_21" d="M5362.818,1795.07c-.293,0-.6-.015-.919-.045a5.14,5.14,0,0,1-2.316-.74,1.883,1.883,0,0,1-.014-3.448,6.1,6.1,0,0,1,.6-.32l.224-.11a.626.626,0,0,0-.151-.215c-.032-.036-.065-.071-.094-.108-.548-.713-1.1-1.423-1.654-2.134l-.931-1.2a6.317,6.317,0,0,1-.3-7.29,6.445,6.445,0,0,1,11.826,2.407,6.255,6.255,0,0,1-1.3,5c-.647.822-1.276,1.634-1.943,2.493l-.813,1.048.123.057a4.738,4.738,0,0,1,.983.55,2,2,0,0,1,.855,1.565,1.919,1.919,0,0,1-.855,1.488A5.3,5.3,0,0,1,5362.818,1795.07Zm-.074-18.432a6.284,6.284,0,0,0-5.318,2.927,6.123,6.123,0,0,0,.291,7.068q.464.6.931,1.2.829,1.066,1.655,2.135a1.251,1.251,0,0,0,.083.1.653.653,0,0,1,.213.391l0,.064-.057.029c-.1.05-.194.1-.291.144a5.81,5.81,0,0,0-.583.31,1.694,1.694,0,0,0,.013,3.121,4.954,4.954,0,0,0,2.231.711,5.631,5.631,0,0,0,4.107-.912,1.737,1.737,0,0,0,.778-1.336,1.813,1.813,0,0,0-.783-1.411,4.61,4.61,0,0,0-.943-.527l-.234-.109-.109-.052.074-.095.887-1.143c.667-.859,1.3-1.671,1.944-2.494a5.989,5.989,0,0,0,1.258-4.854,6.222,6.222,0,0,0-6.152-5.262Zm.139,17.56c-.063,0-.127,0-.19-.006a5.235,5.235,0,0,1-2.615-.642c-.486-.3-.743-.638-.743-.99s.262-.7.756-1c.871-.531.97-.51,1.5.325l.18.28c.182.285.371.58.563.865.139.2.269.308.386.308h0c.114,0,.24-.1.374-.3.283-.423.653-.984,1-1.561a.436.436,0,0,1,.648-.212c.069.032.141.064.212.1.519.229,1.106.489,1.122,1.181.016.741-.618,1.008-1.177,1.244l-.128.054a3.733,3.733,0,0,1-.806.231A5.984,5.984,0,0,1,5362.883,1794.2Zm-2.011-2.8a1.708,1.708,0,0,0-.681.325c-.434.264-.663.555-.663.839s.225.566.649.825a4.987,4.987,0,0,0,2.522.614h0a5.059,5.059,0,0,0,1.228-.12,3.565,3.565,0,0,0,.765-.219l.129-.055c.528-.222,1.072-.452,1.059-1.062-.013-.569-.495-.782-1.006-1.009-.073-.032-.146-.064-.216-.1-.2-.093-.28-.064-.4.136-.347.581-.718,1.144-1,1.57-.173.259-.348.385-.534.385h0c-.189,0-.367-.128-.546-.393-.194-.287-.383-.583-.565-.869l-.179-.28C5361.173,1791.577,5361.056,1791.4,5360.873,1791.4Zm1.85.754h0c-.129,0-.235-.11-.353-.274-.63-.877-1.28-1.763-1.909-2.62-.741-1.01-1.508-2.055-2.248-3.093a5.326,5.326,0,0,1-.449-5.786,5.473,5.473,0,0,1,4.97-3.066h.011a5.454,5.454,0,0,1,4.929,3.057,5.322,5.322,0,0,1-.437,5.786c-.787,1.108-1.606,2.223-2.4,3.3-.579.79-1.179,1.606-1.761,2.413C5362.972,1792.016,5362.863,1792.15,5362.723,1792.15Zm.016-14.646a5.292,5.292,0,0,0-4.8,2.96,5.08,5.08,0,0,0,.433,5.587c.74,1.037,1.505,2.081,2.247,3.091.629.857,1.279,1.744,1.909,2.622.121.168.176.193.2.193h0c.054,0,.164-.152.2-.2.583-.808,1.183-1.625,1.762-2.415.791-1.077,1.608-2.191,2.394-3.3a5.078,5.078,0,0,0,.423-5.587A5.273,5.273,0,0,0,5362.739,1777.5Z" data-name="Path 21" transform="translate(-5356.25 -1776.444)"/></g><g id="Group_31" data-name="Group 31" transform="translate(3.303 3.293)"><path id="Path_22" d="M5394.526,1817.69a3.072,3.072,0,1,1,3.07-3.061A3.084,3.084,0,0,1,5394.526,1817.69Zm2.19-3.086a2.192,2.192,0,1,0-2.178,2.206A2.191,2.191,0,0,0,5396.716,1814.6Z" data-name="Path 22" transform="translate(-5391.355 -1811.451)"/><path id="Path_23" d="M5393.622,1816.883a3.168,3.168,0,1,1,3.169-3.157,3.172,3.172,0,0,1-3.169,3.157Zm0-.193v0a2.971,2.971,0,1,0-2.978-2.96,2.979,2.979,0,0,0,2.978,2.96Zm0-.687a2.288,2.288,0,0,1-.017-4.576h.014a2.291,2.291,0,0,1,2.29,2.273h0a2.289,2.289,0,0,1-2.274,2.3Zm0-4.383h-.012a2.095,2.095,0,0,0,.015,4.19h.012a2.094,2.094,0,0,0,2.082-2.109h0A2.1,2.1,0,0,0,5393.62,1811.62Z" data-name="Path 23" transform="translate(-5390.453 -1810.547)"/></g></g></svg>