<svg xmlns="http://www.w3.org/2000/svg" width="22" height="23.381" viewBox="0 0 22 23.381"><g id="Group_104" data-name="Group 104" transform="translate(-2775.385 -1770.014)"><g id="Group_100" data-name="Group 100" transform="translate(2775.385 1770.014)"><g id="Group_98" data-name="Group 98" transform="translate(0.114 0.114)"><path id="Path_56" fill="#fff" d="M2778.051,1782.571c0,2.245-.007,4.49,0,6.734.009,2.138,1.058,3.186,3.219,3.208,1.548.016,3.1.028,4.644-.009.627-.015.886.134.882.826s-.249.85-.886.836c-1.664-.037-3.33.028-4.992-.025a4.428,4.428,0,0,1-4.525-4.688q-.018-6.851,0-13.7a4.458,4.458,0,0,1,4.724-4.729c1.587-.013,3.174.007,4.76-.008.569-.005.986-.06,1.01.794.026.935-.451.858-1.058.851q-2.322-.025-4.644,0a2.839,2.839,0,0,0-3.134,3.178C2778.042,1778.081,2778.051,1780.326,2778.051,1782.571Z" data-name="Path 56" transform="translate(-2776.385 -1771.014)"/></g><g id="Group_99" data-name="Group 99" transform="translate(0)"><path id="Path_57" fill="#fff" d="M2785.093,1793.4h-.071c-.772-.017-1.558-.012-2.318-.008-.877.005-1.783.011-2.675-.017a4.523,4.523,0,0,1-4.635-4.8c-.012-4.853-.012-9.335,0-13.7a4.569,4.569,0,0,1,4.837-4.843c.776-.006,1.563,0,2.326,0,.8,0,1.623,0,2.434,0h.09c.519-.007,1.009-.014,1.035.906a1.02,1.02,0,0,1-.209.778,1.106,1.106,0,0,1-.843.192l-.121,0c-1.467-.016-2.986-.017-4.642,0-1.994.017-3.011,1.048-3.021,3.065-.008,1.566-.006,3.159,0,4.7q0,1.018,0,2.035h0q0,1.022,0,2.043c0,1.537,0,3.127,0,4.69.009,2.089,1,3.073,3.106,3.094,1.565.016,3.1.027,4.64-.009a1.055,1.055,0,0,1,.783.2.971.971,0,0,1,.215.739.993.993,0,0,1-.225.747A.954.954,0,0,1,2785.093,1793.4Zm-1.305-.24c.413,0,.828,0,1.24.012a.837.837,0,0,0,.614-.138.815.815,0,0,0,.156-.585.789.789,0,0,0-.147-.576.839.839,0,0,0-.619-.136c-1.546.036-3.081.025-4.648.009-2.232-.023-3.322-1.109-3.331-3.321-.007-1.564,0-3.154,0-4.692q0-1.022,0-2.043t0-2.035c0-1.54,0-3.133,0-4.7a2.947,2.947,0,0,1,3.247-3.291c1.658-.014,3.178-.013,4.646,0l.123,0c.291.005.543.01.677-.124a.843.843,0,0,0,.143-.612c-.02-.7-.281-.692-.8-.684h-.091c-.812.007-1.638.006-2.437,0-.761,0-1.549,0-2.323,0a4.356,4.356,0,0,0-4.612,4.616c-.013,4.366-.013,8.847,0,13.7a4.309,4.309,0,0,0,4.415,4.575c.887.028,1.792.022,2.666.017C2783.06,1793.157,2783.423,1793.155,2783.788,1793.155Z" data-name="Path 57" transform="translate(-2775.385 -1770.014)"/></g></g><g id="Group_103" data-name="Group 103" transform="translate(2781.007 1776.531)"><g id="Group_101" data-name="Group 101" transform="translate(0.114 0.114)"><path id="Path_58" fill="#fff" d="M2838.854,1832.384c-.9-.883-1.746-1.77-2.662-2.573-.528-.462-.316-.717.067-1.07.343-.316.57-.705,1.093-.157,1.415,1.482,2.874,2.923,4.342,4.352.374.364.338.579-.015.924-1.439,1.4-2.877,2.812-4.259,4.271-.527.557-.783.28-1.182-.1s-.515-.637-.03-1.073c.879-.792,1.69-1.659,2.744-2.708h-1.591c-3.519,0-7.038-.011-10.557.01-.627,0-.985-.044-.995-.844-.01-.848.431-.811,1.012-.81q5.395.017,10.789,0A1.726,1.726,0,0,0,2838.854,1832.384Z" data-name="Path 58" transform="translate(-2825.809 -1828.31)"/></g><g id="Group_102" data-name="Group 102" transform="translate(0 0)"><path id="Path_59" fill="#fff" d="M2836,1837.675c-.258,0-.459-.194-.691-.417l-.034-.032a.949.949,0,0,1-.385-.647.85.85,0,0,1,.357-.592c.606-.545,1.172-1.119,1.826-1.783.229-.233.468-.474.719-.727h-4c-2.579,0-5.246,0-7.868.011-.644,0-1.1-.062-1.109-.957a.967.967,0,0,1,.209-.726,1.132,1.132,0,0,1,.85-.2h.068c3.466.01,7.1.01,10.788,0,.078,0,.16.005.239.011a1.334,1.334,0,0,0,.823-.135q-.35-.344-.692-.687c-.628-.627-1.221-1.22-1.862-1.781a.828.828,0,0,1-.355-.582c0-.248.188-.444.42-.657.045-.041.087-.083.129-.125a.854.854,0,0,1,.568-.337H2836a.805.805,0,0,1,.549.31c1.486,1.556,3.027,3.072,4.339,4.349a.776.776,0,0,1,.3.536.837.837,0,0,1-.315.552c-1.332,1.3-2.841,2.774-4.256,4.268a.9.9,0,0,1-.606.35Zm-4.88-4.429h7.222l-.2.194c-.324.323-.625.628-.912.919-.657.667-1.225,1.242-1.836,1.792-.19.171-.28.307-.282.427s.089.262.315.479l.034.033c.208.2.37.355.541.354a.718.718,0,0,0,.446-.279c1.417-1.5,2.928-2.973,4.262-4.275.173-.169.247-.285.247-.389s-.074-.219-.231-.373c-1.313-1.279-2.856-2.8-4.345-4.355a.619.619,0,0,0-.388-.239h0c-.135,0-.262.126-.408.271-.043.043-.088.087-.135.13-.191.176-.348.333-.346.487,0,.116.092.252.277.413.646.566,1.243,1.161,1.874,1.791.261.261.524.523.793.786l.1.1-.112.079a1.49,1.49,0,0,1-1.086.25c-.078-.005-.151-.009-.223-.01-3.692.012-7.322.012-10.789,0h-.068c-.309,0-.553,0-.687.132a.782.782,0,0,0-.143.562c.009.707.277.735.88.732C2827.645,1833.248,2829.391,1833.246,2831.119,1833.246Z" data-name="Path 59" transform="translate(-2824.81 -1827.31)"/></g></g></g></svg>