<svg xmlns="http://www.w3.org/2000/svg" width="47.988" height="36.909" viewBox="0 0 47.988 36.909"><g id="Group_317" data-name="Group 317" transform="translate(-110 -178.26)"><path id="Path_167" d="M1212.126,2388.416a8.448,8.448,0,0,1,.464-2.372c.159-.558.314-1.119.509-1.664a.585.585,0,0,0-.246-.784c-.761-.554-1.495-1.145-2.235-1.727a4.711,4.711,0,0,1-.746-.731,2.607,2.607,0,0,1,.053-3.449,9.5,9.5,0,0,1,1.437-1.266c.525-.4,1.048-.812,1.584-1.2a.457.457,0,0,0,.2-.585c-.3-1.048-.659-2.081-.9-3.147a2.751,2.751,0,0,1,1-3.045,3.226,3.226,0,0,1,1.671-.537c1.089-.116,2.185-.05,3.276-.12a.379.379,0,0,0,.4-.289c.39-1.044.7-2.116,1.154-3.137a2.827,2.827,0,0,1,1.948-1.789,2.707,2.707,0,0,1,1.8.2,17.533,17.533,0,0,1,2.5,1.586c.326.219.631.622.987.6.332-.021.646-.374.964-.587a23.654,23.654,0,0,1,2.339-1.515,2.727,2.727,0,0,1,2.056-.253,2.682,2.682,0,0,1,1.712,1.479,25.252,25.252,0,0,1,1.006,2.633c.131.355.144.824.443,1.031s.723.08,1.093.087a22.963,22.963,0,0,1,2.68.133,2.672,2.672,0,0,1,2.421,3.435c-.225,1.118-.614,2.19-.93,3.282a.429.429,0,0,0,.18.55c.746.555,1.478,1.129,2.21,1.7a5.585,5.585,0,0,1,.9.873,2.608,2.608,0,0,1,.015,3.313,9.128,9.128,0,0,1-1.637,1.458c-.505.391-1.008.787-1.527,1.16a.382.382,0,0,0-.154.5c.306,1.107.716,2.186.927,3.318a2.72,2.72,0,0,1-2.679,3.459c-1.091.09-2.185.052-3.276.112a.4.4,0,0,0-.417.311c-.372,1.013-.678,2.05-1.11,3.041a3.13,3.13,0,0,1-1.169,1.525,2.688,2.688,0,0,1-2.757.082,15.055,15.055,0,0,1-1.938-1.236c-.371-.26-.751-.508-1.113-.78a.4.4,0,0,0-.555-.007q-1.213.85-2.451,1.664a3.9,3.9,0,0,1-1.491.65,2.614,2.614,0,0,1-2.756-1.347,16.577,16.577,0,0,1-1.052-2.65c-.118-.328-.245-.653-.346-.985a.367.367,0,0,0-.4-.291c-1.023-.026-2.046-.047-3.067-.1a2.984,2.984,0,0,1-2.423-1.094A2.4,2.4,0,0,1,1212.126,2388.416Zm28.141-17.695a1.087,1.087,0,0,0-.8-1.179,2.652,2.652,0,0,0-.583-.1c-1.184-.058-2.369-.1-3.554-.158a1.305,1.305,0,0,1-1.265-.919c-.307-.839-.611-1.68-.921-2.518a6.815,6.815,0,0,0-.57-1.307,1.059,1.059,0,0,0-1.359-.455,4.857,4.857,0,0,0-.941.526q-1.248.831-2.492,1.667a1.324,1.324,0,0,1-1.62.006q-1.237-.847-2.481-1.684a3.978,3.978,0,0,0-1.043-.554,1.058,1.058,0,0,0-1.229.414,3.574,3.574,0,0,0-.417.84c-.382,1.022-.759,2.046-1.141,3.068a1.243,1.243,0,0,1-1.175.881c-1.022.048-2.045.082-3.067.122a4.916,4.916,0,0,0-1.173.146,1.028,1.028,0,0,0-.777,1.033,2.3,2.3,0,0,0,.068.586c.312,1.167.633,2.33.955,3.494a1.315,1.315,0,0,1-.5,1.51q-1.145.885-2.278,1.786a7.956,7.956,0,0,0-.76.666,1.091,1.091,0,0,0,0,1.691,6.856,6.856,0,0,0,.649.582c.781.623,1.565,1.245,2.356,1.855a1.338,1.338,0,0,1,.521,1.566c-.164.557-.321,1.116-.475,1.675a17.18,17.18,0,0,0-.549,2.159,1.087,1.087,0,0,0,.868,1.273,2.893,2.893,0,0,0,.516.077q1.742.081,3.485.15a1.35,1.35,0,0,1,1.342.964c.327.919.667,1.833,1.01,2.746a7.938,7.938,0,0,0,.385.894,1.088,1.088,0,0,0,1.606.525,9.46,9.46,0,0,0,.985-.591c.787-.517,1.565-1.047,2.351-1.565a1.259,1.259,0,0,1,1.5,0c.771.519,1.538,1.044,2.308,1.566a5.964,5.964,0,0,0,1.143.663,1.085,1.085,0,0,0,1.435-.493,4.12,4.12,0,0,0,.3-.628c.321-.847.655-1.689.943-2.547.484-1.435.8-1.5,2.183-1.542,1.034-.03,2.07-.03,3.1-.145a1.13,1.13,0,0,0,1.117-1.488c-.239-1.257-.675-2.462-1-3.7a1.314,1.314,0,0,1,.478-1.486c.885-.7,1.783-1.382,2.654-2.1,1.1-.907,1.107-1.539.009-2.448-.877-.727-1.786-1.415-2.676-2.127a1.261,1.261,0,0,1-.464-1.426c.224-.793.458-1.583.677-2.378A8.644,8.644,0,0,0,1240.267,2370.721Z" data-name="Path 167" transform="translate(-1092.247 -2184.214)"/><text id="New" font-family="SegoeUI, Segoe UI" font-size="10" transform="translate(124 199)"><tspan x="0" y="0">New</tspan></text><path id="Path_168" d="M1698.839,2138.694a.9.9,0,0,1-.879-.674,4.276,4.276,0,0,0-2.94-3.068.909.909,0,0,1-.655-.948.927.927,0,0,1,.7-.919,7.815,7.815,0,0,0,1.236-.481,3.189,3.189,0,0,0,1.665-1.973.991.991,0,0,1,1.95-.059,3.88,3.88,0,0,0,2.609,2.5,1,1,0,0,1,.085,1.951,4.722,4.722,0,0,0-2.752,2.9A1,1,0,0,1,1698.839,2138.694Zm.136-6.673a5.133,5.133,0,0,1-2.3,2.053,5.668,5.668,0,0,1,2.248,2.376,6.591,6.591,0,0,1,2.213-2.353A5.369,5.369,0,0,1,1698.974,2132.021Z" data-name="Path 168" transform="translate(-1584.365 -1951.525)"/><path id="Path_169" d="M1698.839,2138.694a.9.9,0,0,1-.879-.674,4.276,4.276,0,0,0-2.94-3.068.909.909,0,0,1-.655-.948.927.927,0,0,1,.7-.919,7.815,7.815,0,0,0,1.236-.481,3.189,3.189,0,0,0,1.665-1.973.991.991,0,0,1,1.95-.059,3.88,3.88,0,0,0,2.609,2.5,1,1,0,0,1,.085,1.951,4.722,4.722,0,0,0-2.752,2.9A1,1,0,0,1,1698.839,2138.694Zm.136-6.673a5.133,5.133,0,0,1-2.3,2.053,5.668,5.668,0,0,1,2.248,2.376,6.591,6.591,0,0,1,2.213-2.353A5.369,5.369,0,0,1,1698.974,2132.021Z" data-name="Path 169" transform="translate(-1545.365 -1923.525)"/></g></svg>