<svg xmlns="http://www.w3.org/2000/svg" width="22.107" height="22.101" viewBox="0 0 22.107 22.101"><g id="vSUxqm" transform="translate(-1884.633 779.799)"><g id="Group_151" data-name="Group 151" transform="translate(1884.633 -779.799)"><g id="Group_149" data-name="Group 149" transform="translate(0 2.743)"><path id="Path_72" d="M1897.034-731.573q-3.647,0-7.293,0a1.88,1.88,0,0,1-2.107-2.1q0-7.268,0-14.536a1.857,1.857,0,0,1,2.081-2.1q4.086,0,8.173,0c.577,0,.74.229.513.657-.141.265-.366.2-.575.2q-4.009.005-8.017,0c-1,0-1.314.312-1.315,1.333q0,7.165,0,14.329c0,1.009.326,1.343,1.317,1.343q7.216,0,14.432,0c.934,0,1.263-.337,1.263-1.286q0-4.423,0-8.845a1.865,1.865,0,0,1,.023-.462.406.406,0,0,1,.464-.323.387.387,0,0,1,.367.367,2.185,2.185,0,0,1,.005.31q0,4.552,0,9.1a1.834,1.834,0,0,1-1.984,2C1901.931-731.57,1899.482-731.574,1897.034-731.573Z" data-name="Path 72" transform="translate(-1887.322 750.62)"/><path id="Path_73" d="M1889.687-733.951h-2.636a2.177,2.177,0,0,1-2.418-2.408q0-4.6,0-9.2v-5.34a2.168,2.168,0,0,1,2.392-2.413q4.086,0,8.173,0a.96.96,0,0,1,.84.342.758.758,0,0,1-.053.771.727.727,0,0,1-.764.372l-.085,0q-3.028,0-6.056,0h-1.963c-.835,0-1,.172-1,1.023q0,7.164,0,14.329c0,.839.188,1.032,1.006,1.032q7.216,0,14.431,0c.808,0,.952-.256.953-.975q0-2.081,0-4.163,0-2.342,0-4.683c0-.032,0-.065,0-.1a1.593,1.593,0,0,1,.034-.443.719.719,0,0,1,.794-.555.7.7,0,0,1,.646.632,1.612,1.612,0,0,1,.009.274c0,.027,0,.053,0,.08v2.391q0,3.357,0,6.714a2.139,2.139,0,0,1-2.293,2.309q-2.468.005-4.936,0h-7.067Zm.562-18.737h-3.223c-1.208,0-1.77.57-1.77,1.792v5.34q0,4.6,0,9.2a1.575,1.575,0,0,0,1.8,1.787q3.542,0,7.085,0h2.619q2.467,0,4.934,0a1.533,1.533,0,0,0,1.674-1.688q0-3.357,0-6.713v-2.391c0-.032,0-.064,0-.1a1.075,1.075,0,0,0,0-.17c-.013-.095-.04-.1-.088-.1-.085-.008-.114.012-.135.092a1.109,1.109,0,0,0-.014.274c0,.037,0,.074,0,.11q0,2.341,0,4.683,0,2.081,0,4.163c0,1.119-.47,1.6-1.573,1.6q-7.216,0-14.432,0c-1.156,0-1.627-.479-1.627-1.654q0-7.165,0-14.329c0-1.2.441-1.644,1.625-1.644h1.963q3.027,0,6.055,0c.038,0,.075,0,.113,0,.162.007.164,0,.188-.043a.526.526,0,0,0,.061-.158.749.749,0,0,0-.3-.042Q1892.724-752.688,1890.25-752.688Z" data-name="Path 73" transform="translate(-1884.633 753.309)"/></g><g id="Group_150" data-name="Group 150" transform="translate(7.094)"><path id="Path_74" d="M1956.719-762.443c-.418.016-.616-.144-.563-.492.169-1.119.356-2.235.541-3.352a.73.73,0,0,1,.266-.371q4.839-4.841,9.68-9.68a1.277,1.277,0,0,1,2.021.018c.54.537,1.082,1.074,1.608,1.625a1.235,1.235,0,0,1-.181,1.713q-2.3,2.307-4.6,4.6c-1.571,1.571-3.16,3.125-4.7,4.724a2.526,2.526,0,0,1-1.648.808C1958.3-762.755,1957.477-762.574,1956.719-762.443Zm11.25-9.654c-.063-.07-.105-.121-.153-.168-.609-.61-1.23-1.208-1.823-1.834-.223-.235-.316-.058-.442.068q-3.785,3.784-7.572,7.567c-.21.209-.184.32.02.514.574.546,1.129,1.112,1.677,1.684.177.185.276.211.477.008q3.791-3.816,7.6-7.613C1967.824-771.941,1967.891-772.016,1967.968-772.1Zm-.329-3.87a4.806,4.806,0,0,0-1.166,1.047.6.6,0,0,0,.173.245c.374.379.756.751,1.13,1.13.866.877.86.873,1.681-.019.248-.269.265-.484-.006-.744-.484-.464-.95-.947-1.425-1.42A.71.71,0,0,0,1967.639-775.966Zm-8.8,12.283-1.445-1.5c-.09.5-.179,1-.271,1.5-.042.226.026.318.271.269C1957.9-763.523,1958.409-763.607,1958.842-763.684Z" data-name="Path 74" transform="translate(-1955.837 777.134)"/><path id="Path_75" d="M1953.978-764.8a.853.853,0,0,1-.667-.244.71.71,0,0,1-.151-.606c.146-.968.308-1.948.465-2.9l.076-.46a.878.878,0,0,1,.306-.5l.047-.045,2.647-2.649q3.515-3.517,7.033-7.031a1.587,1.587,0,0,1,2.459.018l.1.1c.5.5,1.015,1.01,1.512,1.529a1.543,1.543,0,0,1-.186,2.147q-1.594,1.6-3.194,3.2l-1.409,1.408q-.647.647-1.3,1.292c-1.123,1.116-2.284,2.271-3.4,3.428a2.822,2.822,0,0,1-1.838.9c-.576.063-1.151.17-1.706.274-.236.044-.468.087-.693.126l-.041,0Zm10.973-14.382a1.124,1.124,0,0,0-.777.394q-3.519,3.512-7.032,7.031l-2.648,2.649-.056.055c-.058.055-.117.113-.123.148l-.076.46c-.157.946-.319,1.924-.464,2.888a.2.2,0,0,0,0,.1.411.411,0,0,0,.224.034c.216-.037.437-.079.663-.121.567-.106,1.153-.216,1.753-.281a2.21,2.21,0,0,0,1.458-.715c1.122-1.162,2.285-2.319,3.41-3.437q.648-.645,1.3-1.291l1.41-1.409q1.6-1.6,3.193-3.2a.935.935,0,0,0,.177-1.279c-.491-.513-1-1.024-1.5-1.518l-.1-.1A1.173,1.173,0,0,0,1964.951-779.178ZM1954.6-765.765a.474.474,0,0,1-.347-.13.566.566,0,0,1-.118-.518c.066-.357.13-.714.194-1.069l.185-1.024,2.269,2.361-.572.1-.385.068c-.342.06-.7.121-1.055.193A.884.884,0,0,1,1954.6-765.765Zm.308-1.434q-.071.391-.142.784c.259-.05.519-.1.762-.139Zm2.321.729h0a.652.652,0,0,1-.459-.246c-.657-.685-1.171-1.2-1.667-1.673a.691.691,0,0,1-.262-.484.67.67,0,0,1,.237-.476c1.837-1.829,3.7-3.693,5.5-5.5l2.07-2.071.04-.043a.579.579,0,0,1,.421-.231.565.565,0,0,1,.426.213c.414.438.852.871,1.276,1.29q.271.268.541.538c.035.035.068.073.107.116l.249.276-.269.284c-.051.055-.1.107-.15.157l-1.674,1.674c-1.945,1.944-3.955,3.954-5.926,5.938A.658.658,0,0,1,1957.227-766.47Zm-1.743-2.41.041.041c.5.479,1.024,1,1.688,1.694l.018.018.014-.014c1.971-1.984,3.983-4,5.927-5.94l1.674-1.674.009-.009-.485-.482c-.415-.41-.843-.834-1.253-1.266l-.034.035-2.07,2.071c-1.8,1.8-3.665,3.668-5.5,5.5Zm10.457-6.365c-.336,0-.583-.25-1.069-.742-.187-.189-.372-.373-.557-.557s-.386-.384-.577-.577a.867.867,0,0,1-.254-.39.407.407,0,0,1,.1-.351c.046-.058,1.025-1.08,1.364-1.08h0l.044,0a1,1,0,0,1,.561.326q.239.239.477.479c.307.31.625.63.944.937a.755.755,0,0,1,.019,1.178l-.016.017c-.46.5-.691.75-1.03.756Zm-1.778-2.33.017.018q.285.288.573.573c.186.185.373.37.557.557a2.9,2.9,0,0,0,.633.561,2.818,2.818,0,0,0,.583-.556l.016-.017c.155-.168.135-.187.008-.31-.324-.311-.645-.635-.955-.947q-.236-.239-.474-.477a.916.916,0,0,0-.14-.121A8.345,8.345,0,0,0,1964.162-777.575Zm.893-.767" data-name="Path 75" transform="translate(-1953.149 779.799)"/></g></g></g></svg>