<svg xmlns="http://www.w3.org/2000/svg" width="24.139" height="30.071" viewBox="0 0 24.139 30.071"><g id="Group_34" data-name="Group 34" transform="translate(0)"><g id="Group_33" data-name="Group 33"><path id="Path_24" fill="#050505" d="M5173.637,1007.852a9.9,9.9,0,0,1-.007,1.2c-.285,2.316.1,4.313,2.184,5.794.967.687.85,1.881.471,2.91s-1.288,1.256-2.311,1.237c-1.6-.03-3.2,0-4.8-.015-.512-.006-.816.047-1.026.652a3.883,3.883,0,0,1-7.355-.023.8.8,0,0,0-.933-.632c-1.671.025-3.343-.009-5.014.017a2.023,2.023,0,0,1-2.146-1.159,2.718,2.718,0,0,1,.287-2.88.659.659,0,0,1,.15-.156c2.113-1.353,2.331-3.375,2.222-5.662a30.562,30.562,0,0,1,.138-6.632,8.944,8.944,0,0,1,7.151-7.3c.858-.155,1-.526.973-1.276-.027-.708-.293-1.754.865-1.743s.884,1.058.845,1.763c-.042.782.171,1.1,1,1.257a9.069,9.069,0,0,1,7.289,8.617c.044,1.343.008,2.688.008,4.033Zm-9.219,9.381c3.16,0,6.321,0,9.481-.007.292,0,.717.171.813-.3a.989.989,0,0,0-.238-1.006c-.5-.471-.952-1-1.475-1.45a3.139,3.139,0,0,1-1.134-2.68q.1-3.921,0-7.846a7.376,7.376,0,0,0-14.626-1.2,28.019,28.019,0,0,0-.132,6.521c.136,2.629-.1,4.992-2.53,6.578a.926.926,0,0,0-.336,1.069c.119.533.593.306.908.308C5158.241,1017.24,5161.33,1017.233,5164.417,1017.233Zm2.086,1.84h-4.046a2.15,2.15,0,0,0,4.046,0Z" data-name="Path 24" transform="translate(-5152.423 -992.182)"/></g></g></svg>