<svg xmlns="http://www.w3.org/2000/svg" width="31.5" height="24.296" viewBox="0 0 31.5 24.296"><g id="Group_214" data-name="Group 214" transform="translate(-3701.626 -992.183)"><g id="Group_211" data-name="Group 211" transform="translate(3701.626 1000.15)"><path id="Path_85" fill="#0c0c0c" d="M3713.621,1068.518c-3.009,0-6.018.006-9.026,0-1.979-.006-2.95-.967-2.958-2.953q-.02-5.235,0-10.471a2.59,2.59,0,0,1,2.905-2.891q9.087-.019,18.174,0a2.508,2.508,0,0,1,2.818,2.719q.055,5.415,0,10.832c-.017,1.836-1.013,2.755-2.89,2.762C3719.639,1068.526,3716.63,1068.518,3713.621,1068.518Zm-.116-6.011c3.166,0,6.332-.019,9.5.014.72.008,1.054-.09,1.026-.946-.07-2.122-.062-4.249-.008-6.371.028-1.1-.421-1.494-1.49-1.49q-8.957.035-17.915,0c-1.011,0-1.459.379-1.44,1.421.04,2.123.062,4.25-.012,6.371-.031.9.289,1.028,1.083,1.017C3707.332,1062.481,3710.418,1062.508,3713.5,1062.508Zm.2,1.495c-3.168,0-6.337-.008-9.506.011-.35,0-.814-.23-1.01.352-.544,1.612.188,2.652,1.894,2.653q8.544,0,17.087,0c.24,0,.483.016.721-.007,1.524-.147,1.021-1.328,1.129-2.208.128-1.044-.621-.794-1.17-.8C3719.8,1064,3716.749,1064,3713.7,1064Z" data-name="Path 85" transform="translate(-3701.626 -1052.191)"/></g><g id="Group_212" data-name="Group 212" transform="translate(3724.671 992.183)"><path id="Path_86" fill="#0c0c0c" d="M3883.667,998.9a4.787,4.787,0,0,1-.19,1.543c-.144.444-.423.712-.884.6a.718.718,0,0,1-.564-.918,4.894,4.894,0,0,0,0-2.373,5.14,5.14,0,0,0-5.507-3.994c-.579.052-1.217.194-1.305-.6-.1-.885.662-.877,1.238-.936A6.7,6.7,0,0,1,3883.667,998.9Z" data-name="Path 86" transform="translate(-3875.212 -992.183)"/></g><g id="Group_213" data-name="Group 213" transform="translate(3724.527 996.177)"><path id="Path_87" fill="#0c0c0c" d="M3875.348,1022.279a3.794,3.794,0,0,1,3.485,3.766c-.021.565-.16,1.1-.836,1.087-.581-.015-.726-.471-.771-1.019-.123-1.512-.686-2.146-2.069-2.314-.586-.071-1.094-.208-1.024-.875C3874.207,1022.23,3874.809,1022.248,3875.348,1022.279Z" data-name="Path 87" transform="translate(-3874.127 -1022.267)"/></g></g></svg>