<svg xmlns="http://www.w3.org/2000/svg" width="25.932" height="30.062" viewBox="0 0 25.932 30.062"><g id="Group_27" data-name="Group 27" transform="translate(0)"><g id="Group_25" data-name="Group 25" transform="translate(0 11.858)"><path id="Path_17" fill="#020202" d="M4282.252,1875.585h-.082a26.926,26.926,0,0,1-8.966-1.676,4.646,4.646,0,0,1-3.177-5.527,12.756,12.756,0,0,1,4.423-7.854,13.226,13.226,0,0,1,8.537-3.148h.062A12.939,12.939,0,0,1,4295.8,1868.4a4.692,4.692,0,0,1-3.175,5.541A29.629,29.629,0,0,1,4282.252,1875.585Zm-.023-2.014h.024a27.579,27.579,0,0,0,9.616-1.491,2.741,2.741,0,0,0,1.94-3.4,10.915,10.915,0,0,0-10.77-9.287h-.052a11.211,11.211,0,0,0-7.235,2.671,10.745,10.745,0,0,0-3.732,6.61,2.675,2.675,0,0,0,1.938,3.367A24.969,24.969,0,0,0,4282.229,1873.572Z" data-name="Path 17" transform="translate(-4269.947 -1857.381)"/></g><g id="Group_26" data-name="Group 26" transform="translate(7.305)"><path id="Path_18" fill="#020202" d="M4326.4,1786.183h-.059a5.767,5.767,0,0,1-5.609-5.631,5.618,5.618,0,0,1,5.557-5.614h.075a5.623,5.623,0,0,1,.036,11.246Zm-.085-9.232a3.557,3.557,0,0,0-3.569,3.589,3.766,3.766,0,0,0,3.618,3.63,3.61,3.61,0,1,0-.049-7.219Z" data-name="Path 18" transform="translate(-4320.733 -1774.937)"/></g></g></svg>