<svg id="Component_2_1" data-name="Component 2 – 1" xmlns="http://www.w3.org/2000/svg" width="39" height="39" viewBox="0 0 39 39">
  <circle id="Ellipse_15" data-name="Ellipse 15" cx="19.5" cy="19.5" r="19.5" fill="#CC84EA"/>
  <g id="Group_94" data-name="Group 94" transform="translate(-5345.25 -221.194)">
    <g id="Group_92" data-name="Group 92" transform="translate(5356.25 227.67)">
      <path id="Path_51" data-name="Path 51" d="M5368.96,247.65a8.242,8.242,0,0,1,1.632.883,2.312,2.312,0,0,1,0,3.957,7.861,7.861,0,0,1-5.695,1.27,6.944,6.944,0,0,1-3.1-.99c-1.969-1.239-1.98-3.241-.019-4.481.375-.237.789-.412,1.2-.625-.02-.26-.235-.41-.377-.594-1.171-1.519-2.353-3.031-3.528-4.546a8.529,8.529,0,0,1-.4-9.8,8.662,8.662,0,0,1,15.894,3.235,8.358,8.358,0,0,1-1.744,6.724C5371.545,244.312,5370.284,245.949,5368.96,247.65Zm-2.926-17.8a7.338,7.338,0,0,0-6.67,4.111,7.094,7.094,0,0,0,.6,7.758c1.865,2.616,3.8,5.186,5.671,7.795.324.451.457.4.754-.012,1.88-2.606,3.811-5.175,5.672-7.794a7.091,7.091,0,0,0,.586-7.759A7.328,7.328,0,0,0,5366.034,229.855Zm-.057,22.768a6.92,6.92,0,0,0,1.708-.166,5.009,5.009,0,0,0,1.073-.306c.774-.334,1.722-.652,1.7-1.648s-.977-1.267-1.744-1.625c-.341-.159-.524-.083-.715.237-.433.726-.9,1.434-1.366,2.136-.421.628-.827.621-1.255-.012-.349-.514-.678-1.042-1.014-1.565-.692-1.078-.745-1.091-1.875-.4-1.281.781-1.293,1.719-.018,2.5A6.906,6.906,0,0,0,5365.978,252.623Z" transform="translate(-5357.181 -228.541)" fill="#070707"/>
      <path id="Path_52" data-name="Path 52" d="M5365.211,253.083c-.4,0-.816-.021-1.253-.061a7.01,7.01,0,0,1-3.159-1.01,2.569,2.569,0,0,1-.019-4.7,8.3,8.3,0,0,1,.82-.437c.1-.049.2-.1.3-.15a.847.847,0,0,0-.205-.293c-.045-.049-.089-.1-.128-.148q-1.124-1.459-2.257-2.911l-1.27-1.635a8.616,8.616,0,0,1-.412-9.946,8.793,8.793,0,0,1,16.135,3.285A8.536,8.536,0,0,1,5372,241.9c-.882,1.122-1.741,2.23-2.651,3.4q-.549.708-1.11,1.43l.168.078a6.483,6.483,0,0,1,1.34.751,2.731,2.731,0,0,1,1.167,2.136,2.621,2.621,0,0,1-1.167,2.031A7.233,7.233,0,0,1,5365.211,253.083Zm-.1-25.149a8.575,8.575,0,0,0-7.257,3.994,8.357,8.357,0,0,0,.4,9.644q.634.818,1.27,1.635,1.131,1.454,2.258,2.912c.035.045.074.088.114.131a.885.885,0,0,1,.29.533l.007.087-.078.04c-.133.068-.266.133-.4.2a8.12,8.12,0,0,0-.795.423,2.311,2.311,0,0,0,.019,4.258,6.759,6.759,0,0,0,3.043.971,7.681,7.681,0,0,0,5.6-1.244,2.367,2.367,0,0,0,1.062-1.823,2.476,2.476,0,0,0-1.068-1.926,6.283,6.283,0,0,0-1.288-.719l-.319-.149-.148-.07.1-.13,1.21-1.56c.91-1.173,1.77-2.281,2.652-3.4a8.179,8.179,0,0,0,1.717-6.623,8.622,8.622,0,0,0-6.681-7.005A8.522,8.522,0,0,0,5365.111,227.934Zm.188,23.958c-.086,0-.172,0-.259-.008a7.144,7.144,0,0,1-3.567-.876c-.663-.4-1.013-.87-1.013-1.351s.356-.958,1.031-1.37c1.189-.725,1.324-.7,2.055.444l.244.383c.249.389.5.792.768,1.179.188.279.366.421.526.421h0c.157,0,.329-.138.511-.408.387-.578.892-1.342,1.361-2.13a.594.594,0,0,1,.884-.289c.095.044.192.087.29.131.708.313,1.509.667,1.529,1.611.022,1.011-.842,1.376-1.6,1.7l-.175.074a5.112,5.112,0,0,1-1.1.315A8.2,8.2,0,0,1,5365.3,251.892Zm-2.743-3.823a2.334,2.334,0,0,0-.928.444c-.592.361-.9.757-.9,1.145s.307.773.886,1.126a6.8,6.8,0,0,0,3.44.837h.005a6.9,6.9,0,0,0,1.675-.164,4.837,4.837,0,0,0,1.044-.3l.177-.075c.719-.3,1.462-.617,1.444-1.449-.017-.777-.676-1.068-1.373-1.376-.1-.044-.2-.088-.295-.133-.271-.127-.383-.088-.546.185-.472.793-.979,1.561-1.369,2.142-.236.353-.475.525-.729.525h0c-.256,0-.5-.175-.744-.536-.265-.391-.522-.795-.771-1.185l-.244-.382C5362.967,248.316,5362.808,248.069,5362.557,248.069Zm2.525,1.029h0c-.177,0-.321-.149-.482-.373-.86-1.2-1.747-2.406-2.6-3.575-1.011-1.379-2.057-2.8-3.067-4.22a7.266,7.266,0,0,1-.612-7.894,7.468,7.468,0,0,1,6.781-4.184h.013a7.44,7.44,0,0,1,6.726,4.172,7.26,7.26,0,0,1-.6,7.895c-1.074,1.512-2.19,3.032-3.269,4.5-.791,1.077-1.608,2.191-2.4,3.292C5365.421,248.916,5365.273,249.1,5365.082,249.1Zm.021-19.982a7.218,7.218,0,0,0-6.552,4.039,6.932,6.932,0,0,0,.591,7.622c1.008,1.415,2.054,2.84,3.065,4.217.858,1.17,1.745,2.379,2.606,3.577.165.229.239.263.269.263h0c.073,0,.223-.207.272-.275.8-1.1,1.613-2.217,2.4-3.294,1.079-1.469,2.194-2.989,3.267-4.5a6.929,6.929,0,0,0,.577-7.623A7.193,7.193,0,0,0,5365.1,229.116Z" transform="translate(-5356.25 -227.67)" fill="#070707"/>
    </g>
    <g id="Group_93" data-name="Group 93" transform="translate(5360.757 232.163)">
      <path id="Path_53" data-name="Path 53" d="M5395.647,271.155a4.191,4.191,0,1,1,4.189-4.176A4.207,4.207,0,0,1,5395.647,271.155Zm2.988-4.211a2.991,2.991,0,1,0-2.972,3.01A2.988,2.988,0,0,0,5398.635,266.944Z" transform="translate(-5391.32 -262.642)" fill="#070707"/>
      <path id="Path_54" data-name="Path 54" d="M5394.777,270.418a4.323,4.323,0,1,1,4.323-4.308,4.328,4.328,0,0,1-4.323,4.308Zm0-.263v0a4.053,4.053,0,1,0-4.062-4.038,4.065,4.065,0,0,0,4.062,4.038Zm0-.937a3.122,3.122,0,0,1-.022-6.244h.018a3.126,3.126,0,0,1,3.126,3.1h0a3.124,3.124,0,0,1-3.1,3.143Zm0-5.98h-.016a2.862,2.862,0,0,0-2.84,2.876,2.855,2.855,0,0,0,2.86,2.84h.017a2.86,2.86,0,0,0,2.841-2.878h0A2.862,2.862,0,0,0,5394.773,263.237Z" transform="translate(-5390.453 -261.773)" fill="#070707"/>
    </g>
  </g>
</svg>
