<svg xmlns="http://www.w3.org/2000/svg" width="31.065" height="31.102" viewBox="0 0 31.065 31.102">
  <g id="PsFCIx.tif" transform="translate(-2682.943 814.562)">
    <g id="Group_140" data-name="Group 140" transform="translate(2682.943 -814.562)">
      <path id="Path_67" data-name="Path 67" d="M2686.038-783.46h-1.417c-1.151-.611-1.282-1.229-.5-2.282.364-.488.728-.977,1.062-1.485a8.119,8.119,0,0,0,1.293-2.789,2.1,2.1,0,0,0-.456-1.871,12.952,12.952,0,0,1-2.975-10.037,13.033,13.033,0,0,1,4.784-8.706,16.1,16.1,0,0,1,16.234-2.926,14.4,14.4,0,0,1,8.97,8.2,13.793,13.793,0,0,1,.973,3.849v2.387c-.015.073-.035.145-.043.218a13.232,13.232,0,0,1-4.754,8.845,15.858,15.858,0,0,1-14.61,3.417,3.021,3.021,0,0,0-2.729.472A14.644,14.644,0,0,1,2686.038-783.46Zm12.465-29.583c-.422,0-.845-.005-1.267,0-.161,0-.32.039-.48.057a14.347,14.347,0,0,0-8.162,3.567,11.907,11.907,0,0,0-4.153,7.97,11.652,11.652,0,0,0,2.829,8.843,3.028,3.028,0,0,1,.665,1.433,4.811,4.811,0,0,1-.517,2.887,16.911,16.911,0,0,1-1.778,2.926c-.089.125-.3.26-.208.4s.321.055.486.026a9.333,9.333,0,0,0,2.718-1c1.38-.716,2.673-1.581,4-2.381a.886.886,0,0,1,.832-.094,15.227,15.227,0,0,0,6.645.753,14.373,14.373,0,0,0,7.763-3.142,11.983,11.983,0,0,0,4.663-8.364,11.578,11.578,0,0,0-3.283-9.41A14.265,14.265,0,0,0,2698.5-813.043Z" transform="translate(-2682.943 814.562)"/>
      <path id="Path_68" data-name="Path 68" d="M2901.676-657.562c-.87,0-1.74,0-2.61,0-.52,0-.832-.262-.842-.69s.292-.722.811-.734c.919-.022,1.839-.01,2.758-.014.5,0,.526-.027.529-.527,0-.261-.009-.523.008-.783a.737.737,0,0,1,.683-.714.714.714,0,0,1,.735.652,5.793,5.793,0,0,1,.025.93c-.012.318.115.45.437.445.795-.01,1.59-.006,2.386,0a3.851,3.851,0,0,1,.631.044.7.7,0,0,1,.582.714c-.014.344-.294.707-.632.656-.76-.115-.976.292-1.185.915a9.4,9.4,0,0,1-2.027,3.36c-.245.267-.206.412.072.605a16.652,16.652,0,0,0,1.979,1.189.7.7,0,0,1,.43.754.7.7,0,0,1-.575.611.822.822,0,0,1-.571-.117,11.829,11.829,0,0,1-2.359-1.488.461.461,0,0,0-.677-.015,10.7,10.7,0,0,1-3.06,1.6.714.714,0,0,1-1.007-.562.716.716,0,0,1,.552-.779,11.126,11.126,0,0,0,2.462-1.227c.273-.181.275-.314.056-.542a10.938,10.938,0,0,1-1.417-1.821.8.8,0,0,1-.126-.774.7.7,0,0,1,.6-.445.687.687,0,0,1,.684.366,10.34,10.34,0,0,0,1.287,1.686c.343.364.367.365.684,0a9.012,9.012,0,0,0,1.7-2.872c.138-.38.11-.419-.314-.42C2903.465-657.564,2902.57-657.562,2901.676-657.562Z" transform="translate(-2882.097 672.507)"/>
      <path id="Path_69" data-name="Path 69" d="M2763.919-714.417c.017-.065.044-.2.088-.327q1.453-4.205,2.91-8.409c.008-.023.019-.046.025-.07.11-.37.3-.667.726-.691.345-.019.6.217.762.7q1.474,4.258,2.945,8.516c.183.531-.01.948-.479,1.056a.721.721,0,0,1-.85-.545c-.22-.62-.442-1.239-.644-1.865a.456.456,0,0,0-.51-.371q-1.192.024-2.384,0a.476.476,0,0,0-.544.377c-.207.65-.438,1.293-.674,1.934a.7.7,0,0,1-.789.479A.72.72,0,0,1,2763.919-714.417Zm3.816-6.45-.1,0q-.478,1.383-.955,2.766c-.068.2.056.241.214.241.521,0,1.041,0,1.561,0,.187,0,.292-.073.223-.273Q2768.209-719.5,2767.735-720.867Z" transform="translate(-2757.865 730.692)"/>
    </g>
  </g>
</svg>
