<svg xmlns="http://www.w3.org/2000/svg" width="27.522" height="28.096" viewBox="0 0 27.522 28.096"><g id="sO2NKS" transform="translate(-3183.971 501.613)"><g id="Group_218" data-name="Group 218" transform="translate(3183.971 -501.613)"><path id="Path_91" d="M3197.743-501.613q5.789,0,11.577,0c1.638,0,2.171.535,2.172,2.172q0,7.288,0,14.576c0,1.6-.575,2.172-2.188,2.173h-23.155c-1.6,0-2.173-.572-2.175-2.186,0-1.209-.009-2.418,0-3.627.008-.763.221-.975.986-1.051a2.617,2.617,0,0,0,2.432-2.438,2.6,2.6,0,0,0-2.237-2.752c-1.146-.2-1.185-.251-1.186-1.436q0-1.6,0-3.208c0-1.7.518-2.222,2.192-2.223Q3191.954-501.615,3197.743-501.613Zm-.032,17.227c3.814,0,7.629-.012,11.443.013.559,0,.7-.159.694-.7q-.03-7.082,0-14.164c0-.589-.175-.736-.746-.733-4.093.023-8.187.012-12.281.012-3.512,0-7.024.01-10.536-.011-.521,0-.7.142-.668.668a21.953,21.953,0,0,1,0,2.232.751.751,0,0,0,.61.888,4.036,4.036,0,0,1,2.835,3.627,3.662,3.662,0,0,1-2.078,4c-1.412.583-1.454,1.449-1.361,2.6a3.673,3.673,0,0,1,0,.767c-.081.616.117.827.784.821C3190.175-484.4,3193.943-484.385,3197.711-484.385Z" data-name="Path 91" transform="translate(-3183.971 501.613)"/><path id="Path_92" d="M3351.612-300.771l-.064-.06c.018-.007.039-.021.055-.018a.805.805,0,0,1,.107.037Z" data-name="Path 92" transform="translate(-3328.161 328.867)"/><path id="Path_93" d="M3280.735-476.128a1.108,1.108,0,0,1-.357.784q-4.146,4.973-8.294,9.942c-.417.5-.927.591-1.323.25s-.386-.841.037-1.349q4.117-4.949,8.238-9.895c.286-.343.586-.69,1.111-.523A.776.776,0,0,1,3280.735-476.128Z" data-name="Path 93" transform="translate(-3258.399 480.402)"/><path id="Path_94" d="M3275.553-474.47a2.521,2.521,0,0,1-2.548,2.577,2.56,2.56,0,0,1-2.548-2.519,2.568,2.568,0,0,1,2.525-2.618A2.536,2.536,0,0,1,3275.553-474.47Zm-2.576.9a.932.932,0,0,0,.913-.921.845.845,0,0,0-.912-.841.8.8,0,0,0-.829.9A.839.839,0,0,0,3272.978-473.568Z" data-name="Path 94" transform="translate(-3258.387 480.46)"/><path id="Path_95" d="M3310.052-427.423a2.5,2.5,0,0,1,2.537,2.576,2.517,2.517,0,0,1-2.531,2.517,2.52,2.52,0,0,1-2.576-2.543A2.518,2.518,0,0,1,3310.052-427.423Zm0,3.412a.9.9,0,0,0,.884-.891.907.907,0,0,0-.926-.855.829.829,0,0,0-.826.862A.853.853,0,0,0,3310.048-424.011Z" data-name="Path 95" transform="translate(-3290.246 437.777)"/><path id="Path_96" d="M3234.852-476.354c.22.756-.177.814-.823.853-.781.048-.8-.291-.849-.909-.067-.809.323-.8.92-.83C3234.814-477.278,3235.012-477.005,3234.852-476.354Z" data-name="Path 96" transform="translate(-3226.305 480.645)"/><path id="Path_97" d="M3233.214-451.684c-.255-.837.321-.714.875-.789.86-.117.729.385.8.93.107.87-.418.728-.956.787C3233.141-450.669,3233.12-451.1,3233.214-451.684Z" data-name="Path 97" transform="translate(-3226.289 459.346)"/><path id="Path_98" d="M3233.219-402.373c-.256-.807.274-.708.817-.771.85-.1.8.351.854.966.065.816-.4.689-.909.746C3233.187-401.345,3233.077-401.729,3233.219-402.373Z" data-name="Path 98" transform="translate(-3226.289 416.898)"/><path id="Path_99" d="M3234.072-426.027c-.688.2-.82-.118-.84-.769-.021-.707.188-.863.876-.881.749-.019.833.256.849.9C3234.974-426.064,3234.713-425.876,3234.072-426.027Z" data-name="Path 99" transform="translate(-3226.356 437.996)"/></g></g></svg>