<svg id="Component_6_1" data-name="Component 6 – 1" xmlns="http://www.w3.org/2000/svg" width="39" height="39" viewBox="0 0 39 39">
  <circle id="Ellipse_18" data-name="Ellipse 18" cx="19.5" cy="19.5" r="19.5" fill="#fbb814"/>
  <g id="Group_97" data-name="Group 97" transform="translate(-3233.104 -1752.254)">
    <g id="Group_96" data-name="Group 96" transform="translate(3243.104 1762.415)">
      <g id="Group_95" data-name="Group 95" transform="translate(0 0)">
        <path id="Path_55" data-name="Path 55" d="M3261.985,1771.19a1.743,1.743,0,0,0-.966-2.973l-4.394-.639a.38.38,0,0,1-.288-.209l-1.966-3.982a1.743,1.743,0,0,0-3.126,0l-1.966,3.982a.38.38,0,0,1-.288.209l-4.394.639a1.743,1.743,0,0,0-.967,2.973l3.181,3.1a.385.385,0,0,1,.11.339l-.751,4.376a1.741,1.741,0,0,0,2.53,1.838l3.93-2.066a.379.379,0,0,1,.356,0l3.93,2.066a1.743,1.743,0,0,0,2.529-1.838l-.751-4.377a.383.383,0,0,1,.11-.338Zm-14.473,8.044.751-4.377a1.746,1.746,0,0,0-.5-1.542l-3.181-3.1a.382.382,0,0,1,.212-.652l4.4-.639a1.746,1.746,0,0,0,1.313-.953l1.965-3.982a.382.382,0,0,1,.141-.158.386.386,0,0,1,.545.158l1.965,3.982a1.744,1.744,0,0,0,1.312.953l4.4.639a.382.382,0,0,1,.212.652l-3.181,3.1a1.743,1.743,0,0,0-.5,1.542l.75,4.377a.383.383,0,0,1-.554.4l-3.931-2.067a1.742,1.742,0,0,0-1.622,0l-3.931,2.067a.383.383,0,0,1-.555-.4Z" transform="translate(-3243.104 -1762.415)" fill="#010101"/>
      </g>
    </g>
  </g>
</svg>
