<svg xmlns="http://www.w3.org/2000/svg" width="30.437" height="27.23" viewBox="0 0 30.437 27.23">
  <g id="Group_406" data-name="Group 406" transform="translate(-2199.111 -3260.946)">
    <path id="Path_203" data-name="Path 203" d="M2225.726,3334.541c-.91-.916-.913-1.5-.062-2.409a3.964,3.964,0,0,1,.969-.766,2.025,2.025,0,0,1,2,.045,8.183,8.183,0,0,1,1.689,1.217,5.642,5.642,0,0,1,1.609,1.811c.083.184.178.055.247-.013.408-.406.823-.805,1.213-1.228a13.257,13.257,0,0,0,1.929-2.77c.2-.372.352-.769.527-1.154.1-.217-.021-.426-.024-.639a5.829,5.829,0,0,0-.224-1.74c-.083-.254-.13-.577-.458-.6s-.442.268-.563.511a6.356,6.356,0,0,0-.489,2.017,2.475,2.475,0,0,1-.565,1.5,1.956,1.956,0,0,1-2.218.341,3.081,3.081,0,0,1-1.961-2.312,1.52,1.52,0,0,1,.01-.713,1.031,1.031,0,0,0-.462-1.184,3.024,3.024,0,0,0-1.583-.424,3.146,3.146,0,0,1-1.618-.542,2.131,2.131,0,0,1-.8-2.436,3.643,3.643,0,0,1,1.38-2.15,2.712,2.712,0,0,1,2.2-.266,3.817,3.817,0,0,0,4.067-1.555,3.057,3.057,0,0,1,2.454-1.225c.094,0,.188,0,.32,0a11,11,0,0,0-1.272-2.039,12.545,12.545,0,0,0-1.875-1.99c-.142-.12-.193-.2-.043-.363a7.357,7.357,0,0,0,.629-.749c.169-.234.3-.194.484-.021a18.412,18.412,0,0,1,1.9,2.015,15.074,15.074,0,0,1,3.171,7.7,14.663,14.663,0,0,1-.35,5.308,15.473,15.473,0,0,1-2.477,5.339,15.185,15.185,0,0,1-19.809,4.277,14.734,14.734,0,0,1-3.207-2.444,15.183,15.183,0,0,1,1.3-22.718c.154-.123.234-.091.335.046.088.119.238.328.37.541.18.289.324.583.224.657a13.791,13.791,0,0,0-1.448,1.314c-.183.183-.227.266.061.39a3.059,3.059,0,0,1,1.526,1.364,1.793,1.793,0,0,1,.1,1.541.985.985,0,0,0-.079.6.776.776,0,0,0,1.278.438c.294-.239.545-.53.829-.782a1.714,1.714,0,0,1,2.8.475,3.309,3.309,0,0,1-.206,3.435,12.4,12.4,0,0,1-1.22,1.77.745.745,0,0,0-.182.63c.019.106.012.218.025.325a1.986,1.986,0,0,1-1.542,2.156,5.007,5.007,0,0,1-2.325-.03c-.559-.091-.573-.087-.585.5a9.87,9.87,0,0,1-.076,1.885,1.742,1.742,0,0,1-2.037,1.5c-.076-.014-.182-.066-.237.03-.043.075.031.142.07.2a13.846,13.846,0,0,0,3.643,3.952c.1.073.24.253.25-.065a2.041,2.041,0,0,1,2.63-1.879,4.4,4.4,0,0,1,1.889.839.49.49,0,0,0,.673.038,3.151,3.151,0,0,1,2.609-.271,6.379,6.379,0,0,1,1.24.49A2.985,2.985,0,0,0,2225.726,3334.541Zm-16.2-9.922a14.388,14.388,0,0,0,.549,3.386,1.74,1.74,0,0,0,1.087,1.278c.888.351,1.025.153,1.048-.688a12.321,12.321,0,0,1,.009-2.018,1.254,1.254,0,0,1,1.1-1.081,4.015,4.015,0,0,1,1.329.044,5.439,5.439,0,0,0,1.33.1c.528-.052.758-.332.671-.826a2.017,2.017,0,0,1,.438-1.738c.216-.258.4-.538.6-.814a5.506,5.506,0,0,0,.831-1.507,1.482,1.482,0,0,0-.089-1.229c-.123-.217-.255-.274-.453-.077a8.633,8.633,0,0,1-.737.691,2.338,2.338,0,0,1-2.046.616,2.286,2.286,0,0,1-1.782-3c.13-.558.077-.7-.387-1.032a3.166,3.166,0,0,0-.729-.356.349.349,0,0,0-.495.174A14.065,14.065,0,0,0,2209.524,3324.619Zm27.218,1.144a13.757,13.757,0,0,0-.5-5.706.672.672,0,0,0-.264-.356,1.57,1.57,0,0,0-2.23.338,5.41,5.41,0,0,1-3.478,2.17,6.685,6.685,0,0,1-2.493-.126.859.859,0,0,0-.913.354,2.91,2.91,0,0,0-.482.987.7.7,0,0,0,.541.965,6.071,6.071,0,0,0,.967.14,3.472,3.472,0,0,1,2.407,1.139,2.166,2.166,0,0,1,.573,2.275.6.6,0,0,0,.115.584,2.543,2.543,0,0,0,.87.726c.311.153.514.064.626-.275a2.581,2.581,0,0,0,.111-.673,5.444,5.444,0,0,1,.9-2.754,1.605,1.605,0,0,1,2.587-.48A6.672,6.672,0,0,1,2236.742,3325.762Zm-13.467,12.027a13.613,13.613,0,0,0,6.917-1.944c.536-.322.568-.42.228-.956a1.576,1.576,0,0,0-.2-.254,14.265,14.265,0,0,0-1.495-1.309,3.716,3.716,0,0,0-.947-.568.706.706,0,0,0-.946.257c-.129.167-.146.265.054.414a1.431,1.431,0,0,1,.613,1.48,1.41,1.41,0,0,1-1.069,1.113,3.627,3.627,0,0,1-2.735-.382,6.454,6.454,0,0,0-1.063-.4,1.676,1.676,0,0,0-1.59.323,1.242,1.242,0,0,1-1.491.084c-.226-.128-.428-.3-.645-.442a2.845,2.845,0,0,0-1.446-.539c-.447-.022-.645.2-.569.646a.913.913,0,0,1-.048.666c-.114.184-.013.24.129.312A13.937,13.937,0,0,0,2223.275,3337.79Z" transform="translate(-8.859 -51.146)"/>
  </g>
</svg>
