<svg xmlns="http://www.w3.org/2000/svg" width="9.757" height="9.365" viewBox="0 0 9.757 9.365"><g id="Group_431" data-name="Group 431" transform="translate(-3243.104 -1762.415)"><g id="Group_222" data-name="Group 222" transform="translate(3243.104 1762.415)"><g id="Group_221" data-name="Group 221" transform="translate(0 0)"><path id="Path_100" fill="#010101" d="M3252.6,1766.826a.876.876,0,0,0-.486-1.495l-2.209-.321a.191.191,0,0,1-.145-.105l-.988-2a.876.876,0,0,0-1.571,0l-.988,2a.19.19,0,0,1-.145.105l-2.209.321a.876.876,0,0,0-.485,1.495l1.6,1.558a.193.193,0,0,1,.055.17l-.377,2.2a.878.878,0,0,0,.863,1.025.88.88,0,0,0,.409-.1l1.976-1.039a.191.191,0,0,1,.179,0l1.975,1.039a.876.876,0,0,0,1.272-.924l-.378-2.2a.193.193,0,0,1,.055-.17Zm-7.276,4.044.378-2.2a.878.878,0,0,0-.252-.775l-1.6-1.558a.192.192,0,0,1,.106-.328l2.209-.321a.878.878,0,0,0,.66-.479l.988-2a.193.193,0,0,1,.071-.079.189.189,0,0,1,.1-.028.186.186,0,0,1,.172.107l.988,2a.875.875,0,0,0,.66.479l2.209.321a.192.192,0,0,1,.106.328l-1.6,1.558a.876.876,0,0,0-.252.775l.377,2.2a.192.192,0,0,1-.279.2l-1.976-1.039a.874.874,0,0,0-.815,0l-1.976,1.039a.193.193,0,0,1-.279-.2Z" data-name="Path 100" transform="translate(-3243.104 -1762.415)"/></g></g></g></svg>