<svg xmlns="http://www.w3.org/2000/svg" width="9.756" height="9.365" viewBox="0 0 9.756 9.365"><g id="Group_432" data-name="Group 432" transform="translate(-3243.1 -1762.416)"><g id="Group_229" data-name="Group 229" transform="translate(3243.1 1762.416)"><g id="Group_228" data-name="Group 228" transform="translate(0 0)"><path id="Path_101" fill="#010101" d="M3252.592,1766.827a.877.877,0,0,0-.486-1.495l-2.209-.321a.19.19,0,0,1-.145-.105l-.988-2a.876.876,0,0,0-1.571,0l-.988,2a.191.191,0,0,1-.145.105l-2.209.321a.876.876,0,0,0-.486,1.495l1.6,1.558a.192.192,0,0,1,.055.17l-.378,2.2a.878.878,0,0,0,.863,1.026.881.881,0,0,0,.409-.1l1.975-1.038a.19.19,0,0,1,.179,0l1.976,1.038a.876.876,0,0,0,1.271-.924l-.378-2.2a.193.193,0,0,1,.055-.17Zm-2.328,1.844.377,2.2a.192.192,0,0,1-.279.2l-1.976-1.039a.875.875,0,0,0-.815,0l-1.976,1.039a.193.193,0,0,1-.279-.2l.378-2.2a.877.877,0,0,0-.252-.775l-1.6-1.558a.192.192,0,0,1,.106-.328l2.209-.321a.878.878,0,0,0,.66-.479l.988-2a.194.194,0,0,1,.071-.079.188.188,0,0,1,.1-.028.186.186,0,0,1,.173.107l.988,2a.876.876,0,0,0,.66.479l2.209.321a.192.192,0,0,1,.106.328l-1.6,1.558A.877.877,0,0,0,3250.263,1768.67Z" data-name="Path 101" transform="translate(-3243.1 -1762.416)"/><path id="Path_102" fill="#010101" d="M3265.446,1782.831a.876.876,0,0,0-.252.775l.377,2.2a.185.185,0,0,1-.076.188.187.187,0,0,1-.2.015l-1.976-1.039a.874.874,0,0,0-.815,0l-1.976,1.039a.192.192,0,0,1-.279-.2l.378-2.2a.877.877,0,0,0-.252-.775l-1.6-1.558a.192.192,0,0,1,.106-.328l2.21-.321a.877.877,0,0,0,.659-.479l.988-2a.191.191,0,0,1,.071-.079.194.194,0,0,1,.274.079l.988,2a.876.876,0,0,0,.66.479l2.209.321a.192.192,0,0,1,.106.328Z" data-name="Path 102" transform="translate(-3258.031 -1777.352)"/></g></g></g></svg>