<svg xmlns="http://www.w3.org/2000/svg" id="Component_2_1" width="27" height="27" data-name="Component 2 – 1" viewBox="0 0 27 27"><circle id="Ellipse_28" cx="13.5" cy="13.5" r="13.5" fill="#fbb814" data-name="Ellipse 28"/><g id="JdUFcE" transform="translate(6.923 8.03)"><g id="Group_127" data-name="Group 127"><path id="Path_64" fill="#fff" d="M3924.806,2434.5a6.843,6.843,0,0,1-.837,3.351,9.576,9.576,0,0,1-2.583,2.989,15.936,15.936,0,0,1-2.352,1.511c-.3.166-.626.3-.939.451a.51.51,0,0,1-.449.007,13.864,13.864,0,0,1-2.5-1.357,11.761,11.761,0,0,1-2.677-2.462,7.7,7.7,0,0,1-1.146-2,6.3,6.3,0,0,1-.421-2.815,4.018,4.018,0,0,1,.817-2.167,3.507,3.507,0,0,1,2.265-1.367,4.1,4.1,0,0,1,2.723.53,6.018,6.018,0,0,1,1.037.785c.091.081.134.074.221-.013a4.708,4.708,0,0,1,1.349-.936,4.04,4.04,0,0,1,1.136-.372,3.8,3.8,0,0,1,1.652.084,3.613,3.613,0,0,1,1.594.95,4.138,4.138,0,0,1,.973,1.781A3.706,3.706,0,0,1,3924.806,2434.5Z" data-name="Path 64" transform="translate(-3910.875 -2430.588)"/></g></g></svg>