<svg xmlns="http://www.w3.org/2000/svg" width="29.733" height="29.73" viewBox="0 0 29.733 29.73">
  <g id="Group_314" data-name="Group 314" transform="translate(0)">
    <path id="Path_10" data-name="Path 10" d="M4493.908,1780.622a10.877,10.877,0,0,1-2.154,6.819c-.315.415-.3.663.088.957a2.456,2.456,0,0,1,.394.39,1.96,1.96,0,0,0,2.245.9,2.382,2.382,0,0,1,2.285.823c1.389,1.377,2.784,2.746,4.146,4.147a2.97,2.97,0,1,1-4.231,4.165c-1.357-1.332-2.688-2.69-4.037-4.031a2.9,2.9,0,0,1-.818-3.041.679.679,0,0,0-.225-.811c-.52-.49-.946-1.256-1.548-1.425-.562-.158-1.093.652-1.687.958-4.145,2.127-8.2,1.957-11.9-.851a10.236,10.236,0,0,1-3.987-11.3,10.349,10.349,0,0,1,8.678-8.088A10.791,10.791,0,0,1,4493.908,1780.622Zm-10.849-8.561a8.9,8.9,0,1,0,8.9,8.905A8.867,8.867,0,0,0,4483.06,1772.061Zm16.83,24.8a.89.89,0,0,0-.262-.718c-1.418-1.414-2.826-2.836-4.259-4.234a.968.968,0,0,0-1.383,1.353c1.414,1.453,2.853,2.883,4.292,4.312a.975.975,0,0,0,1.611-.713Z" transform="translate(-4472.09 -1770.045)" fill="#050505"/>
  </g>
</svg>
