<svg xmlns="http://www.w3.org/2000/svg" width="20.055" height="20.053" viewBox="0 0 20.055 20.053">
  <g id="Group_14" data-name="Group 14" transform="translate(0 0)">
    <path id="Path_10" data-name="Path 10" d="M4486.806,1777.179a7.337,7.337,0,0,1-1.453,4.6c-.213.28-.206.447.059.646a1.675,1.675,0,0,1,.266.263,1.322,1.322,0,0,0,1.514.607,1.607,1.607,0,0,1,1.542.555c.936.929,1.877,1.852,2.8,2.8a2,2,0,1,1-2.854,2.809c-.916-.9-1.813-1.815-2.723-2.719a1.954,1.954,0,0,1-.552-2.051.458.458,0,0,0-.152-.547c-.35-.33-.638-.847-1.044-.961-.379-.107-.737.44-1.138.646a7.09,7.09,0,0,1-8.029-.574,6.9,6.9,0,0,1-2.689-7.623,6.98,6.98,0,0,1,5.853-5.455A7.278,7.278,0,0,1,4486.806,1777.179Zm-7.317-5.774a6,6,0,1,0,6,6.006A5.981,5.981,0,0,0,4479.489,1771.4Zm11.352,16.725a.6.6,0,0,0-.177-.484c-.956-.954-1.906-1.913-2.872-2.856a.653.653,0,0,0-.933.913c.954.98,1.924,1.945,2.9,2.908a.658.658,0,0,0,1.087-.481Z" transform="translate(-4472.09 -1770.045)" fill="#050505"/>
  </g>
</svg>
