<svg xmlns="http://www.w3.org/2000/svg" width="31.882" height="31.927" viewBox="0 0 31.882 31.927"><g id="SLewCJ.tif" transform="translate(-3484.707 -1032.161)"><g id="Group_45" data-name="Group 45" transform="translate(3484.707 1032.161)"><path id="Path_38" d="M3514.272,1032.161c2.424,1.315,2.823,2.44,1.766,5.008q-5.018,12.2-10.035,24.389a4.129,4.129,0,0,1-1.275,1.933,2.955,2.955,0,0,1-4.556-1.321c-.886-2.314-1.618-4.688-2.421-7.034a1.1,1.1,0,0,1,.661-1.587c.771-.275,1.257.108,1.5.828.722,2.1,1.424,4.2,2.155,6.3.15.432.218,1.01.837,1.038.636.029.714-.556.888-.977q5.082-12.309,10.142-24.627c.155-.377.478-.787.085-1.211-.436-.47-.887-.165-1.316.011q-12.327,5.041-24.647,10.1c-.425.174-1.009.272-.965.9.043.612.639.656,1.068.807,2.093.737,4.213,1.4,6.286,2.19a2,2,0,0,0,2.335-.429c2.977-2.621,6.021-5.165,9.04-7.738.133-.113.259-.234.394-.343.579-.469,1.2-.605,1.742-.005a1.147,1.147,0,0,1-.206,1.816q-5.45,4.592-10.907,9.175a1.561,1.561,0,0,1-1.706.152c-2.67-.934-5.351-1.834-8.022-2.767a3.046,3.046,0,0,1-2.41-2.894c-.048-1.4.652-2.367,2.237-3.016q12.142-4.974,24.287-9.944a3.162,3.162,0,0,0,1.469-.749Z" data-name="Path 38" transform="translate(-3484.707 -1032.161)"/></g></g></svg>