<svg id="Component_3_1" data-name="Component 3 – 1" xmlns="http://www.w3.org/2000/svg" width="39" height="39" viewBox="0 0 39 39">
  <circle id="Ellipse_29" data-name="Ellipse 29" cx="19.5" cy="19.5" r="19.5" fill="#CC84EA"/>
  <g id="Group_138" data-name="Group 138" transform="translate(-2995.485 -1770.002)">
    <g id="Group_136" data-name="Group 136" transform="translate(3003.485 1780.196)">
      <path id="Path_65" data-name="Path 65" d="M3022.835,1783.478c-.03.111-.078.309-.136.5a2.973,2.973,0,0,0,2.256,3.879,1.554,1.554,0,0,1,1.383,1.4,10.137,10.137,0,0,1-.061,3.775,1.3,1.3,0,0,1-1.136,1.126,3.043,3.043,0,0,0-2.452,4.2,1.343,1.343,0,0,1-.49,1.638,11.331,11.331,0,0,1-2.932,1.745,1.379,1.379,0,0,1-1.705-.427,2.968,2.968,0,0,0-4.872.063,1.366,1.366,0,0,1-1.686.488,10.667,10.667,0,0,1-3.265-1.889,1.287,1.287,0,0,1-.416-1.65,3.039,3.039,0,0,0-2.454-4.276,1.345,1.345,0,0,1-1.255-1.295,10.477,10.477,0,0,1,.093-3.777,1.326,1.326,0,0,1,1.233-1.176,3.014,3.014,0,0,0,2.514-4.1,1.382,1.382,0,0,1,.539-1.729,10.982,10.982,0,0,1,2.921-1.64,1.406,1.406,0,0,1,1.756.449,2.972,2.972,0,0,0,4.647-.01,1.406,1.406,0,0,1,1.76-.433,11.143,11.143,0,0,1,3.158,1.835A1.524,1.524,0,0,1,3022.835,1783.478Zm-11.461,16.931c.234-.033.3-.23.42-.357a4.536,4.536,0,0,1,6.11-.527c.324.245.486.818.969.714a4.425,4.425,0,0,0,1.194-.6c.281-.163.533-.377.809-.55a.5.5,0,0,0,.241-.651,4.458,4.458,0,0,1,3.326-5.684c.275-.077.418-.183.44-.468a11.817,11.817,0,0,0-.025-2.506c-.038-.28-.157-.384-.437-.466a4.483,4.483,0,0,1-3.238-5.6.49.49,0,0,0-.236-.6,12.076,12.076,0,0,0-2-1.178.575.575,0,0,0-.774.156,4.3,4.3,0,0,1-5.837.4c-.919-.814-1.518-.55-2.292-.057-.258.164-.507.344-.774.491-.3.167-.342.373-.256.705a4.468,4.468,0,0,1-3.449,5.606.477.477,0,0,0-.439.467,15.6,15.6,0,0,0-.085,2.262c-.006.428.113.624.577.726a4.478,4.478,0,0,1,3.4,5.185c-.224,1.136-.229,1.145.79,1.748.419.248.868.447,1.3.667C3011.2,1800.338,3011.3,1800.375,3011.374,1800.409Z" transform="translate(-3003.485 -1780.196)" fill="#050505"/>
    </g>
    <g id="Group_137" data-name="Group 137" transform="translate(3011.271 1786.486)">
      <path id="Path_66" data-name="Path 66" d="M3077.906,1837.369a4.6,4.6,0,0,1,2.3,8.631,4.644,4.644,0,0,1-5.61-.9c-.519-.571-.445-1.235.16-1.43.449-.145.717.116,1,.409a3.034,3.034,0,0,0,3.433.7,3.061,3.061,0,0,0-2.366-5.645c-.169.069-.324.175-.5.233a.764.764,0,0,1-.692-1.36A4.747,4.747,0,0,1,3077.906,1837.369Z" transform="translate(-3074.25 -1837.368)" fill="#050505"/>
    </g>
  </g>
</svg>
