<svg xmlns="http://www.w3.org/2000/svg" width="8.988" height="8.909" viewBox="0 0 8.988 8.909">
  <path id="Path_184" data-name="Path 184" d="M1698.839,2138.694a.9.9,0,0,1-.879-.674,4.276,4.276,0,0,0-2.94-3.068.909.909,0,0,1-.655-.948.927.927,0,0,1,.7-.919,7.815,7.815,0,0,0,1.236-.481,3.189,3.189,0,0,0,1.665-1.973.991.991,0,0,1,1.95-.059,3.88,3.88,0,0,0,2.609,2.5,1,1,0,0,1,.085,1.951,4.722,4.722,0,0,0-2.752,2.9A1,1,0,0,1,1698.839,2138.694Zm.136-6.673a5.133,5.133,0,0,1-2.3,2.053,5.668,5.668,0,0,1,2.248,2.376,6.591,6.591,0,0,1,2.213-2.353A5.369,5.369,0,0,1,1698.974,2132.021Z" transform="translate(-1694.365 -2129.784)"/>
</svg>
