<svg xmlns="http://www.w3.org/2000/svg" width="26.131" height="21.44" viewBox="0 0 26.131 21.44"><g id="Group_202" data-name="Group 202" transform="translate(7.762 -40.25)"><g id="Group_201" data-name="Group 201" transform="translate(-7.501 40.5)"><g id="Group_200" data-name="Group 200" transform="translate(0 0)"><path id="Path_78" stroke="#000" stroke-width=".5" d="M.687,61.44a14.762,14.762,0,0,1-8.021-2.347.364.364,0,0,1-.145-.431.365.365,0,0,1,.388-.237,9.114,9.114,0,0,0,1.174.067A9.956,9.956,0,0,0-.582,56.936,5.524,5.524,0,0,1-4.7,53.243a.364.364,0,0,1,.076-.358.365.365,0,0,1,.349-.111,3.54,3.54,0,0,0,.629.074,5.5,5.5,0,0,1-2.856-4.81v-.056a.364.364,0,0,1,.179-.314.364.364,0,0,1,.361-.006,4.793,4.793,0,0,0,.924.389,5.451,5.451,0,0,1-1.425-3.68,5.463,5.463,0,0,1,.747-2.76.364.364,0,0,1,.287-.181.365.365,0,0,1,.312.133,14.126,14.126,0,0,0,4.5,3.657,13.906,13.906,0,0,0,5.3,1.514,6.226,6.226,0,0,1-.045-.77,5.464,5.464,0,0,1,9.307-3.885,9.8,9.8,0,0,0,2.926-1.15.364.364,0,0,1,.534.423,5.4,5.4,0,0,1-1.216,2.067,10.026,10.026,0,0,0,1.417-.5.364.364,0,0,1,.449.537,10.591,10.591,0,0,1-2.486,2.624c.007.175.01.33.01.479a15.38,15.38,0,0,1-3.829,10.024,14.1,14.1,0,0,1-4.67,3.5A15.063,15.063,0,0,1,.687,61.44Zm-6.336-2.222A14.082,14.082,0,0,0,.687,60.712a14.338,14.338,0,0,0,6.074-1.286,13.37,13.37,0,0,0,4.429-3.32,14.642,14.642,0,0,0,3.647-9.542c0-.191-.006-.395-.018-.641a.364.364,0,0,1,.153-.316A9.56,9.56,0,0,0,16.7,44.03a11.241,11.241,0,0,1-1.848.394.364.364,0,0,1-.233-.674,4.739,4.739,0,0,0,1.677-1.7,10.7,10.7,0,0,1-2.409.783.365.365,0,0,1-.337-.108,4.735,4.735,0,0,0-8.192,3.238,4.863,4.863,0,0,0,.109,1.082.364.364,0,0,1-.373.445,14.649,14.649,0,0,1-6.05-1.624,14.825,14.825,0,0,1-4.368-3.42,4.7,4.7,0,0,0-.409,1.924,4.725,4.725,0,0,0,2.1,3.935.364.364,0,0,1,.145.412.367.367,0,0,1-.355.255,5.294,5.294,0,0,1-1.9-.4,4.768,4.768,0,0,0,3.764,4.118.364.364,0,0,1,.291.345.364.364,0,0,1-.268.363,5.445,5.445,0,0,1-1.433.181c-.142,0-.275,0-.4-.011A4.777,4.777,0,0,0,.415,56.318a.364.364,0,0,1,.217.651A10.675,10.675,0,0,1-5.649,59.218Z" data-name="Path 78" transform="translate(7.501 -40.5)"/></g></g></g></svg>