<svg xmlns="http://www.w3.org/2000/svg" width="17.696" height="20.793" viewBox="0 0 17.696 20.793"><g id="Component_2_1" data-name="Component 2 – 1" transform="translate(0 0)"><circle id="Ellipse_64" cx="8" cy="8" r="8" fill="#fbb814" data-name="Ellipse 64" transform="translate(0 4.793)"/><g id="Group_373" data-name="Group 373" transform="translate(4.324 0)"><g id="Group_371" data-name="Group 371" transform="translate(0 0)"><path id="Path_191" fill="#070707" d="M5366.147,1791.839a6.271,6.271,0,0,1,1.238.67,1.753,1.753,0,0,1,0,3,5.96,5.96,0,0,1-4.318.963,5.269,5.269,0,0,1-2.352-.751,1.85,1.85,0,0,1-.015-3.4c.284-.18.6-.313.912-.474-.015-.2-.177-.311-.286-.45-.888-1.152-1.784-2.3-2.676-3.448a6.468,6.468,0,0,1-.306-7.428,6.568,6.568,0,0,1,12.052,2.453,6.337,6.337,0,0,1-1.322,5.1C5368.108,1789.307,5367.151,1790.549,5366.147,1791.839Zm-2.218-13.5a5.565,5.565,0,0,0-5.059,3.118,5.38,5.38,0,0,0,.456,5.883c1.415,1.984,2.879,3.933,4.3,5.911.247.342.347.3.572-.009,1.425-1.976,2.89-3.925,4.3-5.911a5.376,5.376,0,0,0,.444-5.884A5.555,5.555,0,0,0,5363.929,1778.344Zm-.043,17.266a5.237,5.237,0,0,0,1.294-.126,3.8,3.8,0,0,0,.814-.232c.587-.253,1.306-.495,1.289-1.25s-.74-.96-1.321-1.232c-.259-.121-.4-.063-.542.179-.328.551-.679,1.088-1.036,1.62-.319.476-.628.471-.952-.009-.264-.39-.514-.79-.769-1.187-.525-.818-.565-.827-1.421-.3-.972.592-.981,1.3-.013,1.892A5.234,5.234,0,0,0,5363.886,1795.61Z" data-name="Path 191" transform="translate(-5357.215 -1777.347)"/><path id="Path_192" fill="#070707" d="M5363.045,1795.716q-.453,0-.95-.046a5.32,5.32,0,0,1-2.4-.766,1.949,1.949,0,0,1-.014-3.567,6.226,6.226,0,0,1,.623-.331l.231-.114a.641.641,0,0,0-.156-.222c-.034-.037-.067-.074-.1-.112q-.853-1.106-1.711-2.207l-.963-1.24a6.535,6.535,0,0,1-.313-7.542,6.669,6.669,0,0,1,12.236,2.491,6.476,6.476,0,0,1-1.343,5.177c-.669.851-1.321,1.691-2.011,2.58q-.415.537-.841,1.084l.128.059a4.906,4.906,0,0,1,1.016.57,2.073,2.073,0,0,1,.886,1.62,1.993,1.993,0,0,1-.886,1.54A5.485,5.485,0,0,1,5363.045,1795.716Zm-.075-19.072a6.5,6.5,0,0,0-5.5,3.029,6.338,6.338,0,0,0,.3,7.314l.963,1.24q.858,1.1,1.712,2.208a1.23,1.23,0,0,0,.087.1.671.671,0,0,1,.219.4l.005.066-.058.03c-.1.052-.2.1-.3.149a6.323,6.323,0,0,0-.6.321,1.753,1.753,0,0,0,.014,3.229,5.13,5.13,0,0,0,2.309.736,5.826,5.826,0,0,0,4.25-.944,1.8,1.8,0,0,0,.805-1.382,1.879,1.879,0,0,0-.81-1.46,4.761,4.761,0,0,0-.976-.545l-.242-.113-.113-.053.077-.1.918-1.183c.69-.889,1.341-1.729,2.011-2.581a6.205,6.205,0,0,0,1.3-5.022,6.538,6.538,0,0,0-5.066-5.312A6.454,6.454,0,0,0,5362.97,1776.644Zm.143,18.169c-.065,0-.131,0-.2-.006a5.411,5.411,0,0,1-2.706-.664c-.5-.306-.768-.66-.769-1.024s.271-.727.782-1.039c.9-.549,1-.527,1.558.336l.185.29c.188.3.383.6.582.894.143.212.278.319.4.319h0c.12,0,.25-.1.388-.31.294-.438.676-1.018,1.032-1.615a.45.45,0,0,1,.67-.219c.072.034.146.066.221.1.536.237,1.144.506,1.16,1.222.017.767-.639,1.043-1.217,1.287l-.133.056a3.875,3.875,0,0,1-.834.239A6.231,6.231,0,0,1,5363.113,1794.813Zm-2.081-2.9a1.775,1.775,0,0,0-.7.336c-.449.274-.686.574-.686.868s.233.586.673.854a5.154,5.154,0,0,0,2.608.635h0a5.193,5.193,0,0,0,1.27-.125,3.63,3.63,0,0,0,.792-.226l.135-.057c.545-.23,1.108-.468,1.1-1.1-.014-.589-.513-.81-1.041-1.043-.076-.033-.151-.067-.224-.1-.2-.1-.291-.067-.414.14-.358.6-.743,1.184-1.038,1.624-.18.267-.361.4-.553.4h0c-.195,0-.378-.133-.563-.406-.2-.3-.4-.6-.586-.9l-.185-.29C5361.343,1792.1,5361.224,1791.914,5361.032,1791.914Zm1.915.78h0c-.135,0-.244-.114-.366-.283-.653-.908-1.325-1.825-1.975-2.711-.767-1.045-1.561-2.126-2.326-3.2a5.511,5.511,0,0,1-.464-5.986,5.664,5.664,0,0,1,5.143-3.172h.01a5.643,5.643,0,0,1,5.1,3.163,5.507,5.507,0,0,1-.453,5.987c-.815,1.147-1.661,2.3-2.48,3.415-.6.817-1.219,1.661-1.822,2.5C5363.2,1792.556,5363.093,1792.694,5362.947,1792.694Zm.016-15.153A5.474,5.474,0,0,0,5358,1780.6a5.257,5.257,0,0,0,.448,5.78c.765,1.073,1.558,2.153,2.324,3.2.651.887,1.324,1.8,1.977,2.712.125.174.181.2.2.2h0c.056,0,.169-.157.207-.209.6-.836,1.223-1.681,1.823-2.5.817-1.114,1.664-2.266,2.478-3.412a5.254,5.254,0,0,0,.438-5.781A5.454,5.454,0,0,0,5362.963,1777.541Z" data-name="Path 192" transform="translate(-5356.25 -1776.444)"/></g><g id="Group_372" data-name="Group 372" transform="translate(3.417 3.407)"><path id="Path_193" fill="#070707" d="M5394.633,1817.9a3.178,3.178,0,1,1,3.176-3.167A3.19,3.19,0,0,1,5394.633,1817.9Zm2.266-3.193a2.268,2.268,0,1,0-2.253,2.283A2.266,2.266,0,0,0,5396.9,1814.71Z" data-name="Path 193" transform="translate(-5391.353 -1811.448)"/><path id="Path_194" fill="#070707" d="M5393.732,1817.1a3.278,3.278,0,1,1,3.279-3.267,3.284,3.284,0,0,1-3.279,3.267Zm0-.2v0a3.075,3.075,0,1,0-3.081-3.062,3.082,3.082,0,0,0,3.081,3.062Zm0-.711a2.367,2.367,0,0,1-.018-4.734h.014a2.371,2.371,0,0,1,2.371,2.351h0a2.368,2.368,0,0,1-2.354,2.383Zm0-4.535h-.013a2.168,2.168,0,0,0,.017,4.335h.013a2.166,2.166,0,0,0,2.154-2.182h0A2.17,2.17,0,0,0,5393.729,1811.658Z" data-name="Path 194" transform="translate(-5390.453 -1810.547)"/></g></g></g></svg>