<svg id="Component_4_1" data-name="Component 4 – 1" xmlns="http://www.w3.org/2000/svg" width="21.804" height="18.953" viewBox="0 0 21.804 18.953">
  <ellipse id="Ellipse_66" data-name="Ellipse 66" cx="7.5" cy="8" rx="7.5" ry="8" transform="translate(0 2.953)" fill="#fbb814"/>
  <g id="Group_377" data-name="Group 377" transform="translate(5.799)">
    <path id="Path_196" data-name="Path 196" d="M705.961,998.922c0-.363-.012-.726,0-1.088a.854.854,0,0,1,.849-.861.869.869,0,0,1,.865.893q.014,1.6,0,3.2a.816.816,0,0,1-.869.871q-1.619.015-3.238,0a.837.837,0,0,1-.863-.841.828.828,0,0,1,.854-.845c.364-.011.728,0,1.167,0a7.456,7.456,0,0,0-2.317-1.867,6.28,6.28,0,0,0-9.039,5.758c0,.07,0,.14,0,.21a.846.846,0,0,1-.8.946.882.882,0,0,1-.888-.916,7.925,7.925,0,0,1,5.126-7.817,7.694,7.694,0,0,1,8.357,1.722c.243.224.454.483.679.726Z" transform="translate(-691.679 -996.003)" fill="#030303"/>
    <path id="Path_197" data-name="Path 197" d="M777.362,1040.482c0,.42.018.841-.006,1.26-.014.251.089.338.311.394.542.135,1.08.285,1.617.439a.843.843,0,0,1,.672,1.072.856.856,0,0,1-1.125.584c-.836-.223-1.67-.459-2.5-.7a.851.851,0,0,1-.677-.933q-.006-1.7,0-3.4a.857.857,0,1,1,1.707-.013C777.369,1039.614,777.362,1040.048,777.362,1040.482Z" transform="translate(-768.58 -1034.696)" fill="#030303"/>
    <path id="Path_198" data-name="Path 198" d="M783.478,1165.149c-.565.012-.918-.28-.939-.714a.758.758,0,0,1,.768-.811,8.091,8.091,0,0,0,1.2-.2.763.763,0,0,1,.421,1.466A7.647,7.647,0,0,1,783.478,1165.149Z" transform="translate(-774.888 -1149.302)" fill="#050505"/>
    <path id="Path_199" data-name="Path 199" d="M703.89,1121.542a.759.759,0,0,1-.446.748.685.685,0,0,1-.846-.149,4.916,4.916,0,0,1-.954-1.512.686.686,0,0,1,.316-.868.709.709,0,0,1,.95.113c.336.459.63.949.931,1.432A.594.594,0,0,1,703.89,1121.542Z" transform="translate(-700.756 -1109.221)" fill="#050505"/>
    <path id="Path_200" data-name="Path 200" d="M736.149,1155.078a.831.831,0,0,1,.245.1,7.434,7.434,0,0,0,1.14.516.761.761,0,1,1-.495,1.436,5.557,5.557,0,0,1-1.441-.652.706.706,0,0,1-.295-.88A.766.766,0,0,1,736.149,1155.078Z" transform="translate(-731.585 -1141.683)" fill="#050505"/>
    <path id="Path_201" data-name="Path 201" d="M828.965,1140.184a.722.722,0,0,1-.736-.459.7.7,0,0,1,.149-.818c.384-.348.765-.7,1.14-1.057a.655.655,0,0,1,.888-.016.7.7,0,0,1,.249.926,4.56,4.56,0,0,1-1.449,1.375A.6.6,0,0,1,828.965,1140.184Z" transform="translate(-816.669 -1125.739)" fill="#030303"/>
  </g>
</svg>
