<svg id="qOATBC.tif" xmlns="http://www.w3.org/2000/svg" width="11.621" height="16.777" viewBox="0 0 11.621 16.777">
  <g id="Group_453" data-name="Group 453" transform="translate(0 0)">
    <path id="Path_212" data-name="Path 212" d="M-1297.661,90.7a2.227,2.227,0,0,1,.423-1.1,1.862,1.862,0,0,1,1.428-.747c.406-.015.812,0,1.218-.01.125,0,.179.031.175.167q-.013.481,0,.963c0,.139-.054.167-.177.165-.349-.006-.7,0-1.047,0a.637.637,0,0,0-.713.713c0,1.049,0,2.1,0,3.146q0,2.183,0,4.366c0,.579.225.805.8.805h7.417c.575,0,.8-.226.8-.8q0-3.713,0-7.426c0-.585-.216-.8-.8-.8-.321,0-.641,0-.962,0-.121,0-.182-.023-.178-.163.009-.328,0-.656,0-.984,0-.077,0-.146.107-.144a9.339,9.339,0,0,1,1.557.039,1.934,1.934,0,0,1,1.563,2.013q0,3.5,0,7a4.707,4.707,0,0,1-.047,1.024,1.944,1.944,0,0,1-1.953,1.535c-1.553,0-3.106,0-4.66,0h-2.864a1.943,1.943,0,0,1-2.061-1.734.8.8,0,0,0-.031-.1Z" transform="translate(1297.661 -83.678)"/>
    <path id="Path_213" data-name="Path 213" d="M-1234.061-31.236a1.341,1.341,0,0,1,.481.342q1.183,1.192,2.373,2.377a.7.7,0,0,1,.244.548.609.609,0,0,1-.393.563.613.613,0,0,1-.708-.144c-.427-.42-.848-.846-1.271-1.271-.055-.055-.1-.118-.163-.189a.316.316,0,0,0-.047.245q0,3.9,0,7.791a.641.641,0,0,1-.673.71.635.635,0,0,1-.609-.579c-.007-.078,0-.157,0-.235q0-3.831,0-7.662v-.233c-.093,0-.122.068-.164.11-.425.422-.846.848-1.271,1.27a.646.646,0,0,1-.967.048.65.65,0,0,1,.049-.953q1.244-1.251,2.492-2.5a1.264,1.264,0,0,1,.375-.237Z" transform="translate(1240.005 31.236)"/>
  </g>
</svg>
