<svg xmlns="http://www.w3.org/2000/svg" id="Component_3_1" width="25.137" height="20.355" data-name="Component 3 – 1" viewBox="0 0 25.137 20.355"><circle id="Ellipse_67" cx="8" cy="8" r="8" fill="#fbb814" data-name="Ellipse 67" transform="translate(0 4.355)"/><g id="Group_379" data-name="Group 379" transform="translate(5.117)"><path id="Path_202" fill="#040404" d="M1004.676,1797.3a3.009,3.009,0,0,0,1.37,2.4,5.245,5.245,0,0,1,2.564,3.433,1.2,1.2,0,0,0,.256.464,5.127,5.127,0,0,1,.937,2.092c.1.519-.089.833-.6.848-.333.01-.393.145-.467.425a3.251,3.251,0,0,1-6.3-.008c-.075-.288-.16-.417-.487-.409q-1.454.037-2.909,0c-.3-.007-.388.111-.472.361a3.513,3.513,0,0,1-6.745,0c-.1-.3-.24-.359-.525-.359-1.494,0-1.643-.185-1.371-1.659a5.155,5.155,0,0,1,.91-2.1c.136-.188.322-.345.037-.577-.163-.133-.122-.365-.122-.561q0-3.584,0-7.167c0-.655.219-.871.871-.872q3.637-.005,7.275,0c.623,0,.848.22.849.837,0,2.407,0,4.814,0,7.221a.86.86,0,0,1-.192.651c-.07.073-.262.095-.144.279a.328.328,0,0,0,.364.161,1.412,1.412,0,0,0,1.027-.618,2.627,2.627,0,0,0,.435-1.422c.01-1.042,0-2.084,0-3.125,0-.219-.024-.365-.278-.433a.587.587,0,0,1-.41-.629c-.009-.736-.014-1.473,0-2.209a.666.666,0,0,1,.758-.715c.88,0,1.76-.011,2.64.005a.96.96,0,0,0,.759-.281,2.642,2.642,0,0,1,2.088-.672.682.682,0,0,1,.713.767c-.005,1.24,0,2.479,0,3.718,0,.519-.236.738-.754.777A3.382,3.382,0,0,1,1004.676,1797.3Zm-12.578,3.741c-.021.071,0,.1.078.089,1.613.008,3.226.02,4.839.025,1.475,0,1.475,0,1.377-1.516.008-1.453.01-2.905.029-4.358,0-.275-.111-.326-.351-.326q-2.826.01-5.652,0c-.244,0-.349.053-.346.325.019,1.453.02,2.905.027,4.358Zm3.07,4.178c1.184,0,2.368-.014,3.552.008.371.007.432-.119.333-.436a4.281,4.281,0,0,0-1.3-2,1.1,1.1,0,0,0-.78-.281c-1.2.015-2.4.008-3.606,0a.887.887,0,0,0-.6.166,4.2,4.2,0,0,0-1.45,2.145c-.085.294-.038.406.3.4C992.8,1805.212,993.984,1805.224,995.168,1805.224Zm11.513-3.164a4.191,4.191,0,0,0-1.218-1.139,4.13,4.13,0,0,1-2.085-3.266c-.041-.344-.175-.44-.51-.43-.411.013-.281.292-.286.494a26.994,26.994,0,0,1-.059,3.547,2.962,2.962,0,0,1-1.77,2.569c-.489.188-.542.4-.364.8a.518.518,0,0,1,.06.206c-.008.346.185.408.481.385.276-.022.545.061.628-.37a3.379,3.379,0,0,1,1.946-2.419A5.327,5.327,0,0,1,1006.681,1802.06Zm-3.792,3.126h5.318a2.748,2.748,0,0,0-2.91-1.876A2.486,2.486,0,0,0,1002.888,1805.186Zm-9.715,1.39a2.045,2.045,0,0,0,2.2,1.488,1.936,1.936,0,0,0,1.8-1.488Zm10.548-.022a1.879,1.879,0,0,0,.509.942,1.9,1.9,0,0,0,3.092-.557c.1-.241.136-.395-.226-.39C1005.986,1806.564,1004.875,1806.555,1003.722,1806.555Zm2.452-10.056c0-.726-.016-1.408.006-2.089.013-.424-.174-.347-.405-.2a1.25,1.25,0,0,0-.6,1.238A1.1,1.1,0,0,0,1006.174,1796.5Zm-3.317-.623a1.929,1.929,0,0,1,.376,0c.553.112.662-.152.591-.635-.028-.189-.039-.292-.263-.285-.466.014-.932,0-1.4.006-.117,0-.234-.031-.282.157-.135.524.02.753.546.754Z" data-name="Path 202" transform="translate(-989.81 -1792.652)"/></g></svg>