<svg id="Component_1_1" data-name="Component 1 – 1" xmlns="http://www.w3.org/2000/svg" width="20.451" height="17" viewBox="0 0 20.451 17">
  <circle id="Ellipse_65" data-name="Ellipse 65" cx="7.5" cy="7.5" r="7.5" transform="translate(0 2)" fill="#CC84EA"/>
  <g id="Group_376" data-name="Group 376" transform="translate(-3239.104 -1762.415)">
    <g id="Group_375" data-name="Group 375" transform="translate(3243.104 1762.415)">
      <g id="Group_374" data-name="Group 374" transform="translate(0 0)">
        <path id="Path_195" data-name="Path 195" d="M3259.108,1769.853a1.478,1.478,0,0,0-.819-2.52l-3.725-.542a.321.321,0,0,1-.244-.177l-1.666-3.375a1.477,1.477,0,0,0-2.649,0l-1.666,3.375a.322.322,0,0,1-.244.177l-3.725.542a1.478,1.478,0,0,0-.819,2.52l2.7,2.627a.326.326,0,0,1,.093.287l-.637,3.709a1.48,1.48,0,0,0,1.455,1.729,1.482,1.482,0,0,0,.689-.171l3.331-1.751a.322.322,0,0,1,.3,0l3.331,1.751a1.477,1.477,0,0,0,2.144-1.558l-.636-3.71a.325.325,0,0,1,.093-.286Zm-12.268,6.818.637-3.71a1.48,1.48,0,0,0-.425-1.307l-2.7-2.627a.324.324,0,0,1,.179-.552l3.725-.542a1.479,1.479,0,0,0,1.112-.808l1.666-3.375a.324.324,0,0,1,.119-.134.318.318,0,0,1,.171-.047.314.314,0,0,1,.291.181l1.665,3.375a1.479,1.479,0,0,0,1.112.808l3.726.542a.324.324,0,0,1,.179.552l-2.7,2.627a1.479,1.479,0,0,0-.425,1.307l.636,3.71a.324.324,0,0,1-.47.342l-3.332-1.752a1.476,1.476,0,0,0-1.375,0l-3.332,1.752a.325.325,0,0,1-.47-.342Z" transform="translate(-3243.104 -1762.415)" fill="#010101"/>
      </g>
    </g>
  </g>
</svg>
